<?xml version="1.0" encoding="utf-8"?>
<!-- Generator: Adobe Illustrator 23.0.1, SVG Export Plug-In . SVG Version: 6.00 Build 0)  -->
<svg version="1.1" xmlns="http://www.w3.org/2000/svg" xmlns:xlink="http://www.w3.org/1999/xlink" x="0px" y="0px"
	 viewBox="0 0 432 432" style="enable-background:new 0 0 432 432;" xml:space="preserve">
<style type="text/css">
	.st0{fill:#FFFFFF;stroke:#BE1E2D;stroke-width:10;stroke-miterlimit:10;}
	.st1{display:none;}
	.st2{display:inline;fill:#FFFFFF;stroke:#BE1E2D;stroke-width:10;stroke-miterlimit:10;}
	.st3{display:inline;fill:none;stroke:#BE1E2D;stroke-width:10;stroke-miterlimit:10;}
	.st4{display:inline;}
	.st5{fill:#BE1E2D;}
	.st6{display:inline;fill:#BE1E2D;stroke:#BE1E2D;stroke-width:10;stroke-miterlimit:10;}
</style>
<g id="Layer_1">
	<polygon class="st0" points="324.35,365.67 215.84,308.39 107.13,365.29 128.09,244.4 40.37,158.6 161.83,141.16 216.32,31.23 
		270.43,141.35 391.83,159.21 303.81,244.7 	"/>
</g>
<g id="Layer_2" class="st1">
	<polygon class="st2" points="324.35,365.67 215.9,308.36 107.2,365.2 128.2,244.35 40.55,158.54 161.98,141.16 216.5,31.29 
		270.55,141.4 391.9,159.3 303.87,244.73 	"/>
	<polygon class="st2" points="324.35,365.67 215.84,308.39 107.13,365.29 128.09,244.4 40.37,158.6 161.83,141.16 216.32,31.23 
		270.43,141.35 391.83,159.21 303.81,244.7 	"/>
	<line class="st3" x1="216.32" y1="31.23" x2="215.9" y2="308.36"/>
	<g class="st4">
		<g>
			<path class="st5" d="M168.9,226.47c3.22,0,3.22-5,0-5C165.68,221.47,165.67,226.47,168.9,226.47L168.9,226.47z"/>
		</g>
	</g>
	<g class="st4">
		<g>
			<path class="st5" d="M169.09,224.94c3.15-5.82,6.49-11.51,10.04-17.09c1.12-1.76-0.4-3.55-2.16-3.76
				c-5.08-0.61-9.48,5.97-12.74,9.11c-2.01,1.94,0.62,5.51,3.03,3.93c4.57-3.01,8.81-6.37,12.76-10.16
				c1.69-1.61,0.27-4.08-1.77-4.27c-6.67-0.61-12.52,3.55-19.13,2.95c0.59,1.42,1.18,2.85,1.77,4.27c2.3-2.48,4.14-5.09,5.63-8.13
				c0.73-1.5-0.11-4.01-2.16-3.76c-7.25,0.9-13.8,3.22-19.86,7.34c-2.65,1.8-0.15,6.13,2.52,4.32c5.27-3.58,11-5.87,17.34-6.65
				c-0.72-1.25-1.44-2.51-2.16-3.76c-1.3,2.65-2.84,4.95-4.85,7.12c-1.55,1.68-0.37,4.07,1.77,4.27c6.67,0.6,12.52-3.56,19.13-2.95
				c-0.59-1.42-1.18-2.85-1.77-4.27c-3.65,3.49-7.53,6.6-11.75,9.38c1.01,1.31,2.02,2.62,3.03,3.93c1.72-1.66,6.6-7.95,9.2-7.64
				c-0.72-1.25-1.44-2.51-2.16-3.76c-3.55,5.58-6.89,11.27-10.04,17.09C163.24,225.24,167.56,227.77,169.09,224.94L169.09,224.94z"
				/>
		</g>
	</g>
	<g class="st4">
		<g>
			<path class="st5" d="M162.26,196.61c3.22,0,3.22-5,0-5C159.04,191.61,159.04,196.61,162.26,196.61L162.26,196.61z"/>
		</g>
	</g>
	<g class="st4">
		<g>
			<path class="st5" d="M159.71,194.11c0.07,7.63,0.14,15.25,0.2,22.88c1.55-0.42,3.11-0.84,4.66-1.26
				c-4.63-6.52-9.26-13.04-13.89-19.55c-1.51-2.13-5.65-0.92-4.57,1.93c2.39,6.32,4.79,12.64,7.18,18.96
				c1.22-0.94,2.45-1.88,3.67-2.82c-8.18-5.76-16.44-11.4-24.79-16.93c-1.83-1.21-4.28,0.79-3.67,2.82
				c1.81,6.08,4.07,11.96,6.75,17.7c1.14-1.14,2.28-2.28,3.42-3.42c-5.1-2.16-9.9-4.78-14.48-7.88c-2.23-1.51-4.44,1.36-3.42,3.42
				c1.71,3.45,3.42,6.9,5.13,10.35c0.94-1.22,1.88-2.45,2.82-3.67c-4.67-1.86-9.21-3.96-13.68-6.27c-2.54-1.32-4.95,1.79-3.03,3.93
				c2.89,3.21,5.77,6.42,8.66,9.63c1.01-1.31,2.02-2.62,3.03-3.93c-6.51-3.42-13.02-6.85-19.52-10.27c-2.6-1.37-4.83,1.77-3.03,3.93
				c4.7,5.64,10.06,10.47,16.11,14.63c0.84-1.44,1.68-2.88,2.52-4.32c-4.11-2.64-8.22-5.27-12.33-7.91
				c-2.73-1.75-5.15,2.51-2.52,4.32c3.68,2.52,7.49,4.74,11.5,6.69c2.94,1.43,5.09-2.42,2.52-4.32
				c-7.58-5.62-14.87-11.6-21.89-17.92c-0.59,1.42-1.18,2.85-1.77,4.27c9.51-0.79,19.02-1.39,28.55-1.81
				c-0.22-1.64-0.44-3.27-0.66-4.91c-3.13,0.56-6.25,1.12-9.38,1.67c-2.44,0.44-2.33,4.3,0,4.82c2.21,0.5,4.28,0.68,6.55,0.5
				c-0.42-1.55-0.84-3.11-1.26-4.66c-4.25,2.32-9.72-0.14-13.72,3.14c-2.71,2.22-3.53,6.01-1.47,8.9c0.94-1.22,1.88-2.45,2.82-3.67
				c-3.8-1.07-6.87-2.81-9.74-5.55c-0.81,1.39-1.62,2.79-2.43,4.18c7.19,1.34,14.34,2.84,21.46,4.49c2.89,0.67,4.15-2.93,1.93-4.57
				c-3.67-2.71-7.56-4.81-11.77-6.54c-0.44,1.61-0.89,3.21-1.33,4.82c6.17,0.94,12.33,1.88,18.5,2.82c1.85,0.28,4.3-1.72,2.82-3.67
				c-1.94-2.57-4.36-3.4-6.86-5.27c-5.73-4.3-0.28-10.69,3.12-14.37c-1.31-0.17-2.62-0.34-3.93-0.51
				c5.18,7.69,10.37,15.37,15.55,23.06c0.94,1.4,3.49,1.84,4.32,0c1.43-3.17,2.12-6.06,2.09-9.56c-1.64,0.22-3.27,0.44-4.91,0.66
				c2.54,6.64,5.07,13.28,7.61,19.92c1.04,2.72,4.56,2.15,4.91-0.66c0.62-5,0.81-9.95,0.57-14.98c-1.64,0.22-3.27,0.44-4.91,0.66
				c1.66,5.59,3.76,10.96,6.3,16.2c1.04,2.16,3.85,1.19,4.57-0.6c0.66-1.64,1.33-3.27,1.99-4.91c-1.61,0-3.21,0-4.82,0
				c1.24,5.45,2.15,10.92,2.72,16.47c1.64-0.22,3.27-0.44,4.91-0.66c-3.03-8.31-6.59-16.36-10.73-24.18
				c-1.23-2.33-4.51-1.07-4.66,1.26c-0.79,12.5-0.44,24.97,1.07,37.4c1.64-0.22,3.27-0.44,4.91-0.66
				c-3.26-8.58-6.51-17.16-9.77-25.74c-1.14-2.99-5.45-1.86-4.82,1.33c2.01,10.26,5.1,20.13,9.17,29.76
				c1.1,2.61,5.43,0.75,4.57-1.93c-3.15-9.8-7.24-19.2-12.28-28.17c-1.45-2.59-5.08-0.75-4.57,1.93c1.33,7,3.74,13.56,7.19,19.78
				c1.59,2.86,5.64,0.35,4.32-2.52c-2.78-6.04-5.92-11.87-9.44-17.52c-1.71-2.74-5.8-0.33-4.32,2.52
				c4.4,8.45,9.44,16.49,15.12,24.13c1.53,2.05,5.7,0.95,4.57-1.93c-2.36-6-5.13-11.77-8.39-17.34c-1.64-2.81-5.7-0.34-4.32,2.52
				c3.74,7.78,7.49,15.55,11.23,23.33c1.21,2.52,5.59,0.73,4.57-1.93c-1.77-4.6-3.53-9.21-5.3-13.81c-1.14-2.97-5.98-1.68-4.82,1.33
				c1.77,4.6,3.53,9.21,5.3,13.81c1.52-0.64,3.05-1.28,4.57-1.93c-3.74-7.78-7.49-15.55-11.23-23.33c-1.44,0.84-2.88,1.68-4.32,2.52
				c3.04,5.19,5.68,10.55,7.88,16.15c1.52-0.64,3.05-1.28,4.57-1.93c-5.68-7.65-10.72-15.69-15.12-24.13
				c-1.44,0.84-2.88,1.68-4.32,2.52c3.52,5.65,6.66,11.47,9.44,17.52c1.44-0.84,2.88-1.68,4.32-2.52c-3.25-5.87-5.44-12-6.69-18.59
				c-1.52,0.64-3.05,1.28-4.57,1.93c4.83,8.61,8.75,17.58,11.77,26.98c1.52-0.64,3.05-1.28,4.57-1.93
				c-3.89-9.21-6.74-18.76-8.67-28.56c-1.61,0.44-3.21,0.89-4.82,1.33c3.26,8.58,6.51,17.16,9.77,25.74
				c0.91,2.4,5.28,2.36,4.91-0.66c-1.51-12.43-1.86-24.9-1.07-37.4c-1.55,0.42-3.11,0.84-4.66,1.26
				c3.93,7.44,7.34,15.08,10.22,22.99c0.89,2.45,5.22,2.34,4.91-0.66c-0.62-6-1.57-11.92-2.9-17.8c-0.6-2.65-3.98-2.08-4.82,0
				c-0.66,1.64-1.33,3.27-1.99,4.91c1.52-0.2,3.05-0.4,4.57-0.6c-2.36-4.86-4.26-9.83-5.8-15c-0.78-2.62-5.05-2.24-4.91,0.66
				c0.24,5.03,0.05,9.98-0.57,14.98c1.64-0.22,3.27-0.44,4.91-0.66c-2.54-6.64-5.07-13.28-7.61-19.92c-0.95-2.5-4.93-2.34-4.91,0.66
				c0.02,2.53-0.35,4.69-1.41,7.03c1.44,0,2.88,0,4.32,0c-5.18-7.69-10.37-15.37-15.55-23.06c-0.86-1.28-2.77-1.76-3.93-0.51
				c-3.81,4.13-7.72,8.88-6.95,14.88c0.26,1.99,1.04,3.88,2.4,5.38c2.11,2.32,5.61,2.94,7.5,5.44c0.94-1.22,1.88-2.45,2.82-3.67
				c-6.17-0.94-12.33-1.88-18.5-2.82c-3.2-0.49-4.32,3.59-1.33,4.82c3.81,1.57,7.27,3.6,10.58,6.04c0.64-1.52,1.28-3.05,1.93-4.57
				c-7.12-1.66-14.27-3.16-21.46-4.49c-2.31-0.43-4.37,2.33-2.43,4.18c3.45,3.3,7.35,5.54,11.94,6.83c1.96,0.55,4.13-1.84,2.82-3.67
				c0.69-1.08,1.38-2.15,2.07-3.23c0.92-0.15,1.84-0.23,2.77-0.22c1.16-0.05,2.31-0.01,3.46-0.13c1.87-0.19,3.46-0.72,5.09-1.62
				c2.09-1.14,1.25-4.87-1.26-4.66c-1.9,0.16-3.31,0.11-5.22-0.32c0,1.61,0,3.21,0,4.82c3.13-0.56,6.25-1.12,9.38-1.67
				c2.78-0.5,2.13-5.03-0.66-4.91c-9.53,0.42-19.05,1.02-28.55,1.81c-2,0.17-3.5,2.71-1.77,4.27c7.33,6.6,14.97,12.82,22.9,18.7
				c0.84-1.44,1.68-2.88,2.52-4.32c-4.01-1.95-7.82-4.17-11.5-6.69c-0.84,1.44-1.68,2.88-2.52,4.32c4.11,2.64,8.22,5.27,12.33,7.91
				c2.74,1.75,5.14-2.51,2.52-4.32c-5.69-3.93-10.67-8.54-15.09-13.85c-1.01,1.31-2.02,2.62-3.03,3.93
				c6.51,3.42,13.02,6.85,19.52,10.27c2.54,1.33,4.94-1.8,3.03-3.93c-2.89-3.21-5.77-6.42-8.66-9.63c-1.01,1.31-2.02,2.62-3.03,3.93
				c4.85,2.51,9.8,4.76,14.87,6.78c2.21,0.88,3.69-1.93,2.82-3.67c-1.71-3.45-3.42-6.9-5.13-10.35c-1.14,1.14-2.28,2.28-3.42,3.42
				c4.59,3.11,9.38,5.72,14.48,7.88c2.31,0.98,4.53-1.03,3.42-3.42c-2.5-5.36-4.56-10.85-6.25-16.51c-1.22,0.94-2.45,1.88-3.67,2.82
				c8.34,5.53,16.6,11.17,24.79,16.93c1.72,1.21,4.43-0.82,3.67-2.82c-2.39-6.32-4.79-12.64-7.18-18.96
				c-1.52,0.64-3.05,1.28-4.57,1.93c4.63,6.52,9.26,13.04,13.89,19.55c1.36,1.92,4.68,1.39,4.66-1.26
				c-0.07-7.63-0.14-15.25-0.2-22.88C164.68,190.89,159.68,190.89,159.71,194.11L159.71,194.11z"/>
		</g>
	</g>
	<g class="st4">
		<g>
			<path class="st5" d="M161.93,295.17c2.45-11.27,6.41-21.98,11.92-32.12c-1.52-0.64-3.05-1.28-4.57-1.93
				c-2.62,9.85-4.35,19.85-5.24,30c-0.2,2.22,2.83,3.21,4.27,1.77c6.26-6.3,12.53-12.6,18.79-18.91c-1.39-0.81-2.79-1.62-4.18-2.43
				c-2.87,8.25-5.74,16.49-8.61,24.74c-0.68,1.97,1.92,4.1,3.67,2.82c4.19-3.05,8.39-6.1,12.58-9.15c-1.25-0.72-2.51-1.44-3.76-2.16
				c-0.76,5.97-2.24,11.72-4.33,17.36c-0.81,2.19,1.9,3.74,3.67,2.82c4.7-2.42,9.02-5.3,13.12-8.64c-1.18-1.18-2.36-2.36-3.54-3.54
				c-5.54,4.94-10.8,10.14-15.8,15.63c-1.55,1.7-0.07,5.1,2.43,4.18c5.94-2.2,11.75-4.69,17.43-7.5c2.58-1.27,0.76-5.3-1.93-4.57
				c-6.02,1.64-11.57,4.16-16.74,7.66c-2.69,1.82-0.39,5.65,2.52,4.32c5.16-2.37,10.1-5.07,14.87-8.15
				c-1.01-1.31-2.02-2.62-3.03-3.93c-4.82,4.96-9.91,9.59-15.31,13.92c-2.25,1.81,0.64,5.33,3.03,3.93
				c8.19-4.79,16.39-9.58,24.58-14.37c-0.84-1.44-1.68-2.88-2.52-4.32c-3.64,2.13-7.28,4.26-10.92,6.39
				c0.84,1.44,1.68,2.88,2.52,4.32c3.29-2.19,8.25-2.6,10.37-6.34c2.63-4.66-0.79-12.51-1.83-17.16
				c-3.42-15.43-7.01-30.82-10.74-46.17c-0.76-3.13-5.58-1.8-4.82,1.33c2.97,12.22,5.85,24.46,8.63,36.73
				c1.35,5.97,2.79,11.94,3.99,17.94c0.79,3.95,0.31,5.49-3.41,7.07c-1.63,0.69-3.22,1.3-4.71,2.29c-2.66,1.77-0.28,5.96,2.52,4.32
				c3.64-2.13,7.28-4.26,10.92-6.39c2.78-1.62,0.26-5.95-2.52-4.32c-8.19,4.79-16.39,9.58-24.58,14.37
				c1.01,1.31,2.02,2.62,3.03,3.93c5.39-4.33,10.49-8.96,15.31-13.92c1.93-1.98-0.58-5.51-3.03-3.93
				c-4.77,3.08-9.71,5.78-14.87,8.15c0.84,1.44,1.68,2.88,2.52,4.32c4.82-3.26,9.93-5.63,15.55-7.16c-0.64-1.52-1.28-3.05-1.93-4.57
				c-5.29,2.62-10.69,4.95-16.23,6.99c0.81,1.39,1.62,2.79,2.43,4.18c5-5.49,10.25-10.69,15.8-15.63c2.44-2.17-1.08-5.53-3.54-3.54
				c-3.77,3.07-7.79,5.64-12.11,7.86c1.22,0.94,2.45,1.88,3.67,2.82c2.25-6.08,3.69-12.26,4.51-18.69c0.23-1.82-2.32-3.21-3.76-2.16
				c-4.19,3.05-8.39,6.1-12.58,9.15c1.22,0.94,2.45,1.88,3.67,2.82c2.87-8.25,5.74-16.49,8.61-24.74c0.84-2.42-2.49-4.13-4.18-2.43
				c-6.26,6.3-12.53,12.6-18.79,18.91c1.42,0.59,2.85,1.18,4.27,1.77c0.86-9.72,2.56-19.25,5.06-28.67
				c0.71-2.69-3.19-4.46-4.57-1.93c-5.71,10.5-9.88,21.63-12.42,33.31C156.42,296.98,161.24,298.32,161.93,295.17L161.93,295.17z"/>
		</g>
	</g>
	<g class="st4">
		<g>
			<path class="st5" d="M173.61,149.39c-4.24,0.4-8.49,0.58-12.75,0.41c-1.82-0.07-3.64-0.22-5.46-0.38
				c-2.16-0.24-2.42-0.27-0.77-0.09c-1.2-0.2-2.4-0.42-3.59-0.66c0,11.25,0,22.5,0,33.75c6.37-1.94,12.74-3.88,19.11-5.82
				c8.37-2.55,13.7-10.51,12.54-19.2c-1.06-7.85-8.52-16.09-17.19-15.17c-28.03,2.97-56.03,6.19-84.01,9.68
				c-7.17,0.89-13.01,3.69-15.99,10.76c-2.47,5.84-1.8,14.84,3.62,19.12c18.9,14.94,37.81,29.88,56.71,44.81
				c5.68-9.75,11.35-19.5,17.03-29.25c-2.38-0.72-4.74-1.48-7.07-2.34c-0.45-0.17-5.08-2.01-2.73-1.02
				c-3.72-1.56-7.36-3.36-10.97-5.17c-3.48-1.74-6.99-3.48-10.4-5.37c-0.28-0.16-3.48-2.4-3.74-2.26c1.79-0.93,3.27,6.69,2.63,2.73
				c0,3.1,0,6.2,0,9.3c0.13-0.4,0.26-0.79,0.39-1.19c-2.68,3.49-5.36,6.97-8.04,10.46c-1.37,0.89-8.04,1.68-2.56,1.01
				c1.35-0.17,2.71-0.33,4.06-0.5c9.05-1.11,17.96-7.25,17.5-17.5c-0.38-8.53-7.77-18.69-17.5-17.5
				c-11.36,1.39-23.67,2.02-27.4,15.32c-3.23,11.5,4.23,21.9,13.27,28.08c5.64,3.86,12.19,6.74,18.33,9.69
				c8.07,3.87,16.36,7.41,24.94,9.99c7.12,2.14,16.23-1.35,19.76-8.04c3.34-6.33,3.44-16.32-2.74-21.21
				c-18.9-14.94-37.81-29.88-56.71-44.81c-4.12,9.96-8.25,19.92-12.37,29.87c27.97-3.48,55.97-6.71,84.01-9.68
				c-1.55-11.46-3.1-22.92-4.65-34.37c-6.37,1.94-12.74,3.88-19.11,5.82c-7.11,2.16-13.2,9.11-12.85,16.87
				c0.33,7.3,5.14,15.37,12.85,16.87c10.54,2.06,21.16,2.99,31.87,1.98c9.09-0.85,17.95-7.44,17.5-17.5
				C190.72,158.14,183.37,148.48,173.61,149.39L173.61,149.39z"/>
		</g>
	</g>
	<g class="st4">
		<g>
			<path class="st5" d="M130.5,166.08c-1.36,0.49-2.73,0.98-4.09,1.47c-7.04,2.53-13.21,8.83-12.85,16.87
				c0.35,7.74,5.19,14.74,12.85,16.87c11.69,3.26,24.04,6.5,36.28,5.85c6.35-0.34,12.62-1.48,18.6-3.62
				c2.49-0.89,4.93-1.9,7.42-2.77c1.1-0.38,2.2-0.76,3.32-1.08c0.27-0.08,5.45-1.06,2.17-0.7c-5.62-7.38-11.25-14.77-16.87-22.15
				c-1.2,4.79-2.39,9.57-3.59,14.36c-2.13,8.51,2.05,17.24,10.13,20.65c7.19,3.04,18.43,0.86,21.85-7.16
				c9.51-22.27,14.35-45.92,12.43-70.2c-0.5-6.29-3.02-11.81-8.67-15.11c-5.12-3-12.58-3.45-17.67,0
				c-6.28,4.26-10.92,9.54-14.72,16.11c-1.35,2.34-2.57,4.75-3.97,7.06c-0.26,0.43-2.26,3.67-0.87,1.54
				c1.29-1.97-1.7,1.68-2.18,2.12c9.96,4.12,19.92,8.25,29.87,12.37c-0.2-5.68-0.39-11.36-0.59-17.04
				c-0.45-13.11-14.57-22-26.33-15.11c-6.39,3.74-10.53,9.38-12.77,16.35c-4.52,14.06,13.1,28.33,25.71,19.76
				c17.8-12.1,23.13-34.09,30.51-53.17c3.31-8.56-3.64-19.57-12.22-21.53c-10.02-2.28-17.98,3.06-21.53,12.22
				c-2.94,7.59-5.81,15.21-8.81,22.78c-0.28,0.7-0.56,1.4-0.85,2.1c0.78-1.85,0.75-1.86-0.07-0.02c-0.71,1.33-1.34,2.69-2.1,3.99
				c-0.67,1.13-2.63,3.56-0.65,1.3c-0.66,0.75-5.06,4.22-1.94,2.1c8.57,6.59,17.14,13.18,25.71,19.76c-0.52,1.6-1.81,3.68-3.31,4.56
				c-8.78-5.04-17.56-10.07-26.33-15.11c0.2,5.68,0.39,11.36,0.59,17.04c0.53,15.5,18.58,22.63,29.87,12.37
				c4.39-3.99,7.67-9.11,10.53-14.26c1.09-1.96,2.26-3.87,3.34-5.83c1.88-3.42-2.35,2.05,0.38-0.65c0.8-0.79,3.8-2.91,0.41-0.61
				c-8.78-5.04-17.56-10.07-26.33-15.11c0.38,4.78,0.55,9.56,0.42,14.35c-0.07,2.39-0.2,4.78-0.41,7.17
				c-0.1,1.19-0.23,2.38-0.35,3.57c0.27-2.48-0.08,0.62-0.24,1.57c-0.77,4.72-1.81,9.4-3.11,14.01c-0.65,2.3-1.36,4.59-2.14,6.85
				c-0.39,1.13-0.8,2.26-1.22,3.38c-0.15,0.41-1.58,3.95-0.59,1.64c10.66,4.49,21.32,8.99,31.99,13.48
				c1.2-4.79,2.39-9.57,3.59-14.36c2.49-9.98-5.13-23.44-16.87-22.15c-6.08,0.67-11.57,1.82-17.27,3.94
				c-2.47,0.92-4.93,1.91-7.44,2.72c-1.11,0.36-2.25,0.62-3.37,0.97c-0.6,0.13-1.19,0.26-1.79,0.4c1.36-0.1,1.41-0.1,0.16,0.01
				c-2.4,0.26-4.84,0.25-7.25,0.13c-1.52-0.07-3.04-0.18-4.55-0.38c1.93,0.26,0.02-0.05-0.81-0.22c-5.45-1.12-10.82-2.5-16.18-3.99
				c0,11.25,0,22.5,0,33.75c1.36-0.49,2.73-0.98,4.09-1.47c8.59-3.09,15.29-12.06,12.22-21.53
				C149.29,169.84,139.73,162.76,130.5,166.08L130.5,166.08z"/>
		</g>
	</g>
	<g class="st4">
		<g>
			<path class="st5" d="M178.22,187.51c-0.07,0.51-0.4,2.97-0.15,1.14c-0.17,1.29-0.35,2.57-0.53,3.86
				c-0.36,2.57-0.73,5.14-1.11,7.71c-0.81,5.46-1.66,10.91-2.56,16.36c-1.74,10.57-3.66,21.11-5.72,31.62
				c10.66-1.39,21.32-2.79,31.99-4.18c-10.26-16.1-16.71-29.88-22.09-46.82c-10.66,4.49-21.32,8.99-31.99,13.48
				c11.03,18.44,22.12,36.85,35.11,54c4.58,6.05,11.81,10.61,19.76,8.04c7.57-2.45,12.52-8.89,12.85-16.87
				c0.8-19.82,0.91-39.65,0.31-59.47c-0.53-17.72-23.13-23.33-32.61-8.83c-4.29,6.55-8.57,13.1-12.86,19.65
				c-4.02,6.15-8.69,12.21-12.21,18.65c-0.91,1.67,0.97-0.96,1.66-1.36c1.27-0.74,5-0.61,1.91-0.78c-4.51-0.24,3.07,1.05-1.39-0.25
				c-1.48-0.43-2.95-0.81-4.42-1.27c-1.64-0.52-3.31-1.05-4.91-1.67c2.68,1.03-1.56-0.89-2.03-1.17c2.47,1.48-1.19-1.04,0.16,0.36
				c0.66,1.01,0.52,0.77-0.41-0.73c0.58,0.93,0.86,1.94,0.84,3.04c-0.63-9.11-7.6-17.94-17.5-17.5c-8.94,0.4-18.17,7.72-17.5,17.5
				c0.9,13.14,8.52,24.05,20.57,29.52c10.49,4.76,23.28,9.22,34.87,6.21c12.69-3.3,18.57-14.5,25.24-24.69
				c6.07-9.28,12.14-18.56,18.21-27.84c-10.87-2.94-21.74-5.89-32.61-8.83c0.59,19.82,0.49,39.65-0.31,59.47
				c10.87-2.94,21.74-5.89,32.61-8.83c-12.99-17.14-24.09-35.56-35.11-54c-4.49-7.51-13.85-10.54-21.85-7.16
				c-7.71,3.25-12.79,12.28-10.13,20.65c6.15,19.38,14.69,38.03,25.62,55.18c3.82,5.99,10.32,9.31,17.44,8.35
				c6.41-0.86,13.22-5.79,14.55-12.54c4.56-23.21,8.24-46.55,11.33-69.99c1.2-9.11-8.91-17.88-17.5-17.5
				C185.21,170.48,179.5,177.75,178.22,187.51L178.22,187.51z"/>
		</g>
	</g>
	<g class="st4">
		<g>
			<path class="st5" d="M139.99,251.5c-0.6,2.28-1.26,4.53-2.03,6.75c-0.39,1.11-0.8,2.21-1.24,3.3c0.5-1.2,0.51-1.25,0-0.14
				c-1.89,4-4.09,7.8-6.57,11.47c10.66,1.39,21.32,2.79,31.99,4.18c-0.18-0.75-0.81-5.16-0.55-2.11c-0.17-2.01,0.04-4-0.04-6.01
				c0.11-1.27,0.07-1.14-0.12,0.39c0.14-0.85,0.32-1.69,0.54-2.52c0.48-1.96,1.13-3.83,1.87-5.71c-11.46-1.55-22.92-3.1-34.37-4.65
				c0.82,9.5,0.93,19.44,2.7,28.82c2.87,15.2,18.57,16.92,30.79,13.5c7.71-2.16,14.9-6.08,21.86-9.95c3.1-1.72,6.28-3.28,9.42-4.93
				c1.15-0.52,0.91-0.43-0.73,0.29c0.93-0.36,1.86-0.69,2.81-1c0.95-0.3,1.9-0.57,2.87-0.8c3.25-0.6,1.91-0.68-4.01-0.25
				c-3.49-2.68-6.97-5.36-10.46-8.04c0.23,0.38,0.46,0.77,0.69,1.15c-0.8-2.94-1.59-5.89-2.39-8.83c0.56,4.83,0.43,9.81,0.58,14.67
				c0.08,2.43-0.18,5.18,0.24,7.57c-0.14,5.05,1.74,2.04,5.63-9.03c-0.64,0.37-1.29,0.73-1.95,1.07
				c-8.8,4.81-17.66,9.53-26.49,14.29c-8.07,4.35-11.28,16.19-6.28,23.94c5.28,8.19,15.31,10.93,23.94,6.28
				c5.7-3.07,11.4-6.15,17.09-9.22c6.32-3.41,13.7-6.36,18.19-12.18c5.1-6.6,4.9-13.88,4.66-21.78c-0.24-7.73,0.81-17.51-3-24.45
				c-9.12-16.63-29.53-8.89-42.45-2.25c-4.73,2.43-9.28,5.21-14.05,7.58c-1.12,0.56-2.24,1.11-3.39,1.6
				c2.28-0.97,0.82-0.39-0.67,0.08c-1.18,0.38-2.38,0.63-3.56,0.97c-0.48,0.09-0.97,0.19-1.45,0.28c1.47-0.37,2.95-0.36,4.44,0.02
				c3.49,2.68,6.97,5.36,10.46,8.04c1.27,5.5,1.7,6.5,1.27,2.99c-0.05-0.62-0.11-1.24-0.16-1.86c-0.19-2.17-0.37-4.34-0.56-6.51
				c-0.35-4.03-0.69-8.05-1.04-12.08c-0.75-8.76-6.09-15.97-15.17-17.19c-9.17-1.23-15.98,4.3-19.2,12.54
				c-4.3,10.99-4.47,23.18-1.7,34.56c1.64,6.73,7.92,11.64,14.55,12.54c7.2,0.97,13.43-2.41,17.44-8.35
				c6.09-9.03,10.58-19.22,13.37-29.75c2.34-8.84-2.95-19.41-12.22-21.53C152.34,237.19,142.5,242.03,139.99,251.5L139.99,251.5z"/>
		</g>
	</g>
	<g class="st4">
		<g>
			<path class="st5" d="M124.94,278.55c-2.8,10.84-7.11,22.3-7.27,33.58c-0.13,9.16,8.14,17.92,17.5,17.5
				c9.59-0.43,17.36-7.69,17.5-17.5c0.08-2.11,0.04-2.2-0.13-0.27c0.23-1.08,0.49-2.16,0.78-3.23c0.55-2.21,1.14-4.41,1.71-6.61
				c1.22-4.72,2.44-9.44,3.66-14.16c2.29-8.85-2.91-19.41-12.22-21.53C137.34,264.25,127.39,269.07,124.94,278.55L124.94,278.55z"/>
		</g>
	</g>
	<g class="st4">
		<g>
			<path class="st5" d="M139.75,300.48c-4.99,4.01-7.87,9.57-10.13,15.41c-1.96,5.07,0.01,11.21,3.13,15.26
				c3.31,4.28,8.21,6.96,13.74,6.9c5.56-0.06,11.18-0.81,16.58-2.1c8.91-2.13,15.07-12.74,12.22-21.53
				c-3-9.27-11.98-14.51-21.53-12.22c-1.81,0.43-3.62,0.78-5.46,1.04c1.55-0.21,3.1-0.42,4.65-0.63c-2.16,0.27-4.3,0.41-6.47,0.43
				c5.62,7.38,11.25,14.77,16.87,22.15c0.09-0.23,0.18-0.46,0.27-0.69c-0.59,1.39-1.18,2.79-1.76,4.18
				c0.61-1.38,1.33-2.63,2.22-3.85c-0.91,1.18-1.82,2.36-2.74,3.54c0.94-1.18,1.96-2.2,3.14-3.15c3.27-2.63,5.13-8.37,5.13-12.37
				c0-4.29-1.91-9.42-5.13-12.37c-3.34-3.06-7.71-5.33-12.37-5.13c-1.55,0.21-3.1,0.42-4.65,0.63
				C144.51,296.81,141.94,298.31,139.75,300.48L139.75,300.48z"/>
		</g>
	</g>
	<g class="st4">
		<g>
			<path class="st5" d="M134.77,345.26c9.15,0,17.92-8.05,17.5-17.5c-0.42-9.48-7.69-17.5-17.5-17.5c-9.15,0-17.92,8.05-17.5,17.5
				C117.7,337.24,124.96,345.26,134.77,345.26L134.77,345.26z"/>
		</g>
	</g>
	<g class="st4">
		<g>
			<path class="st5" d="M130.51,350.47c9.15,0,17.92-8.05,17.5-17.5c-0.42-9.48-7.69-17.5-17.5-17.5c-9.15,0-17.92,8.05-17.5,17.5
				C113.43,342.45,120.7,350.47,130.51,350.47L130.51,350.47z"/>
		</g>
	</g>
	<g class="st4">
		<g>
			<path class="st5" d="M119,340.91c-3.86,3.61-6.57,8.18-7.98,13.27c-1.12,4.03,2.53,6.67,6.15,6.15c5.59-0.81,9.63-4.85,11.69-9.9
				c1.45-3.57-2.79-7.2-6.15-6.15c-2.06,0.64,0.35-0.15-0.24,0.26c-0.04-0.06-0.04-0.12,0-0.18c-0.06,0.83,0,0.82,0.2-0.05
				c1.86-6.18-7.79-8.82-9.64-2.66c-2.27,7.55,4.77,14.65,12.35,12.27c-2.05-2.05-4.1-4.1-6.15-6.15c-0.78,1.91-2.85,2.65-4.7,2.92
				c2.05,2.05,4.1,4.1,6.15,6.15c0.97-3.51,2.76-6.37,5.41-8.85C130.78,343.57,123.7,336.51,119,340.91L119,340.91z"/>
		</g>
	</g>
	<g class="st4">
		<g>
			<path class="st5" d="M69.37,159.73c-3.75,0-7.49-0.01-11.24-0.01c-3.83,0-8.33,0.79-8.38,5.66c-0.04,3.87,3.61,5.69,6.36,7.63
				c3.16,2.23,6.32,4.46,9.48,6.69c2.21,1.56,5.56,0.4,6.84-1.79c1.46-2.5,0.42-5.28-1.79-6.84c-2.11-1.49-4.21-2.97-6.32-4.46
				c-0.9-0.64-1.81-1.27-2.71-1.91c-0.6-0.42-1.2-0.85-1.81-1.27c-0.86-0.82-1.11-0.93-0.75-0.32c0.23,0.84,0.46,1.68,0.68,2.52
				c0.01-0.16,0.02-0.33,0.03-0.49c-0.83,1.44-1.65,2.88-2.48,4.32c0.16-0.12,0.32-0.23,0.47-0.35c-0.84,0.23-1.68,0.46-2.52,0.68
				c4.61-0.5,9.49-0.06,14.13-0.06C75.8,169.74,75.81,159.74,69.37,159.73L69.37,159.73z"/>
		</g>
	</g>
	<g class="st4">
		<g>
			<path class="st5" d="M198.98,93.42c5.16-13.36,14.92-24.47,17.89-38.75c0.89-4.27-3.38-7.79-7.34-5.65
				c-6.5,3.51-6.27,14.7-6.76,21.1c-0.72,9.44-0.54,18.94-0.61,28.4c3.11-0.84,6.21-1.68,9.32-2.52c-2.08-4.2-3.36-8.54-4.14-13.16
				c-1.07-6.33-10.7-3.65-9.64,2.66c0.92,5.48,2.69,10.58,5.15,15.55c2.27,4.59,9.28,2.2,9.32-2.52c0.05-6.92,0.03-13.84,0.23-20.76
				c0.09-3.18,0.24-6.37,0.54-9.54c0.14-1.45,0.34-9.85,1.65-10.56c-2.45-1.88-4.9-3.76-7.35-5.65
				c-2.93,14.11-12.76,25.46-17.89,38.75C187.02,96.77,196.68,99.37,198.98,93.42L198.98,93.42z"/>
		</g>
	</g>
</g>
<g id="Layer_3" class="st1">
	<polygon class="st6" points="324.35,365.67 215.84,308.39 107.13,365.29 128.09,244.4 40.37,158.6 161.83,141.16 216.32,31.23 
		270.43,141.35 391.83,159.21 303.81,244.7 	"/>
</g>
</svg>
