<?xml version="1.0" encoding="utf-8"?>
<!-- Generator: Adobe Illustrator 23.0.1, SVG Export Plug-In . SVG Version: 6.00 Build 0)  -->
<svg version="1.1" id="Layer_1" xmlns="http://www.w3.org/2000/svg" xmlns:xlink="http://www.w3.org/1999/xlink" x="0px" y="0px"
	 viewBox="0 0 125 25" style="enable-background:new 0 0 125 25;" xml:space="preserve">
<style type="text/css">
	.st0{fill:#FFFFFF;}
	.st1{fill:#C1272D;}
</style>
<g>
	<polygon class="st0" points="57.41,15.2 52.27,10.26 59.31,9.18 62.42,2.77 65.62,9.13 72.68,10.11 67.62,15.12 68.88,22.14 
		62.54,18.87 56.26,22.23 	"/>
	<path class="st1" d="M62.43,3.9l2.63,5.23l0.24,0.47l0.52,0.07l5.8,0.8l-4.16,4.12l-0.37,0.37l0.09,0.52l1.03,5.76L63,18.54
		l-0.47-0.24l-0.46,0.25l-5.16,2.76l0.95-5.78l0.08-0.52l-0.38-0.36l-4.22-4.05l5.79-0.89l0.52-0.08l0.23-0.47L62.43,3.9
		 M62.41,1.64l-3.43,7.09l-7.79,1.19l5.68,5.46l-1.27,7.78l6.95-3.72l7,3.61l-1.39-7.76l5.6-5.54l-7.81-1.07L62.41,1.64L62.41,1.64z
		"/>
</g>
<g>
	<polygon class="st0" points="33.41,15.2 28.27,10.26 35.31,9.18 38.42,2.77 41.62,9.13 48.68,10.11 43.62,15.12 44.88,22.14 
		38.54,18.87 32.26,22.23 	"/>
	<path class="st1" d="M38.43,3.9l2.63,5.23l0.24,0.47l0.52,0.07l5.8,0.8l-4.16,4.12l-0.37,0.37l0.09,0.52l1.03,5.76L39,18.54
		l-0.47-0.24l-0.46,0.25l-5.16,2.76l0.95-5.78l0.08-0.52l-0.38-0.36l-4.22-4.05l5.79-0.89l0.52-0.08l0.23-0.47L38.43,3.9
		 M38.41,1.64l-3.43,7.09l-7.79,1.19l5.68,5.46l-1.27,7.78l6.95-3.72l7,3.61l-1.39-7.76l5.6-5.54l-7.81-1.07L38.41,1.64L38.41,1.64z
		"/>
</g>
<g>
	<polygon class="st0" points="81.41,15.2 76.27,10.26 83.31,9.18 86.42,2.77 89.62,9.13 96.68,10.11 91.62,15.12 92.88,22.14 
		86.54,18.87 80.26,22.23 	"/>
	<path class="st1" d="M86.43,3.9l2.63,5.23l0.24,0.47l0.52,0.07l5.8,0.8l-4.16,4.12l-0.37,0.37l0.09,0.52l1.03,5.76L87,18.54
		l-0.47-0.24l-0.46,0.25l-5.16,2.76l0.95-5.78l0.08-0.52l-0.38-0.36l-4.22-4.05l5.79-0.89l0.52-0.08l0.23-0.47L86.43,3.9
		 M86.41,1.64l-3.43,7.09l-7.79,1.19l5.68,5.46l-1.27,7.78l6.95-3.72l7,3.61l-1.39-7.76l5.6-5.54l-7.81-1.07L86.41,1.64L86.41,1.64z
		"/>
</g>
<g>
	<polygon class="st0" points="9.41,15.2 4.27,10.26 11.31,9.18 14.42,2.77 17.62,9.13 24.68,10.11 19.62,15.12 20.88,22.14 
		14.54,18.87 8.26,22.23 	"/>
	<path class="st1" d="M14.43,3.9l2.63,5.23l0.24,0.47l0.52,0.07l5.8,0.8l-4.16,4.12l-0.37,0.37l0.09,0.52l1.03,5.76L15,18.54
		l-0.47-0.24l-0.46,0.25l-5.16,2.76l0.95-5.78l0.08-0.52l-0.38-0.36L5.34,10.6l5.79-0.89l0.52-0.08l0.23-0.47L14.43,3.9 M14.41,1.64
		l-3.43,7.09L3.19,9.92l5.68,5.46L7.6,23.15l6.95-3.72l7,3.61l-1.39-7.76l5.6-5.54l-7.81-1.07L14.41,1.64L14.41,1.64z"/>
</g>
<g>
	<polygon class="st0" points="105.41,15.2 100.27,10.26 107.31,9.18 110.42,2.77 113.62,9.13 120.68,10.11 115.62,15.12 
		116.88,22.14 110.54,18.87 104.26,22.23 	"/>
	<path class="st1" d="M110.43,3.9l2.63,5.23l0.24,0.47l0.52,0.07l5.8,0.8l-4.16,4.12l-0.37,0.37l0.09,0.52l1.03,5.76l-5.2-2.68
		l-0.47-0.24l-0.46,0.25l-5.16,2.76l0.95-5.78l0.08-0.52l-0.38-0.36l-4.22-4.05l5.79-0.89l0.52-0.08l0.23-0.47L110.43,3.9
		 M110.41,1.64l-3.43,7.09l-7.79,1.19l5.68,5.46l-1.27,7.78l6.95-3.72l7,3.61l-1.39-7.76l5.6-5.54l-7.81-1.07L110.41,1.64
		L110.41,1.64z"/>
</g>
</svg>
