<?xml version="1.0" encoding="utf-8"?>
<!-- Generator: Adobe Illustrator 23.0.1, SVG Export Plug-In . SVG Version: 6.00 Build 0)  -->
<svg version="1.1" xmlns="http://www.w3.org/2000/svg" xmlns:xlink="http://www.w3.org/1999/xlink" x="0px" y="0px"
	 viewBox="0 0 125 25" style="enable-background:new 0 0 125 25;" xml:space="preserve">
<style type="text/css">
	.st0{display:none;}
	.st1{display:inline;}
	.st2{fill:#FFFFFF;}
	.st3{fill:#C1272D;}
	.st4{fill:none;stroke:#C1272D;stroke-miterlimit:10;}
	.st5{fill-rule:evenodd;clip-rule:evenodd;fill:#C1272D;}
	.st6{fill-rule:evenodd;clip-rule:evenodd;fill:#C1272D;stroke:#C1272D;stroke-miterlimit:10;}
	.st7{fill-rule:evenodd;clip-rule:evenodd;fill:#C1272D;stroke:#C1272D;stroke-width:0.5;stroke-miterlimit:10;}
</style>
<g id="Layer_1" class="st0">
	<g class="st1">
		<polygon class="st2" points="57.41,15.2 52.27,10.26 59.31,9.18 62.42,2.77 65.62,9.13 72.68,10.11 67.62,15.12 68.88,22.14 
			62.54,18.87 56.26,22.23 		"/>
		<path class="st3" d="M62.43,3.9l2.63,5.23l0.24,0.47l0.52,0.07l5.8,0.8l-4.16,4.12l-0.37,0.37l0.09,0.52l1.03,5.76L63,18.54
			l-0.47-0.24l-0.46,0.25l-5.16,2.76l0.95-5.78l0.08-0.52l-0.38-0.36l-4.22-4.05l5.79-0.89l0.52-0.08l0.23-0.47L62.43,3.9
			 M62.41,1.64l-3.43,7.09l-7.79,1.19l5.68,5.46l-1.27,7.78l6.95-3.72l7,3.61l-1.39-7.76l5.6-5.54l-7.81-1.07L62.41,1.64L62.41,1.64
			z"/>
	</g>
	<g class="st1">
		<polygon class="st2" points="33.41,15.2 28.27,10.26 35.31,9.18 38.42,2.77 41.62,9.13 48.68,10.11 43.62,15.12 44.88,22.14 
			38.54,18.87 32.26,22.23 		"/>
		<path class="st3" d="M38.43,3.9l2.63,5.23l0.24,0.47l0.52,0.07l5.8,0.8l-4.16,4.12l-0.37,0.37l0.09,0.52l1.03,5.76L39,18.54
			l-0.47-0.24l-0.46,0.25l-5.16,2.76l0.95-5.78l0.08-0.52l-0.38-0.36l-4.22-4.05l5.79-0.89l0.52-0.08l0.23-0.47L38.43,3.9
			 M38.41,1.64l-3.43,7.09l-7.79,1.19l5.68,5.46l-1.27,7.78l6.95-3.72l7,3.61l-1.39-7.76l5.6-5.54l-7.81-1.07L38.41,1.64L38.41,1.64
			z"/>
	</g>
	<g class="st1">
		<polygon class="st2" points="81.41,15.2 76.27,10.26 83.31,9.18 86.42,2.77 89.62,9.13 96.68,10.11 91.62,15.12 92.88,22.14 
			86.54,18.87 80.26,22.23 		"/>
		<path class="st3" d="M86.43,3.9l2.63,5.23l0.24,0.47l0.52,0.07l5.8,0.8l-4.16,4.12l-0.37,0.37l0.09,0.52l1.03,5.76L87,18.54
			l-0.47-0.24l-0.46,0.25l-5.16,2.76l0.95-5.78l0.08-0.52l-0.38-0.36l-4.22-4.05l5.79-0.89l0.52-0.08l0.23-0.47L86.43,3.9
			 M86.41,1.64l-3.43,7.09l-7.79,1.19l5.68,5.46l-1.27,7.78l6.95-3.72l7,3.61l-1.39-7.76l5.6-5.54l-7.81-1.07L86.41,1.64L86.41,1.64
			z"/>
	</g>
	<g class="st1">
		<path class="st2" d="M9.41,15.2l-5.14-4.94l7.05-1.08l3.11-6.42l0.37,0.73c0.06,0.12,0.09,0.18,0.12,0.24l2.71,5.4l7.06,0.97
			l-5.07,5.01l1.26,7.02l-6.33-3.27l-6.28,3.36L9.41,15.2z"/>
		<path class="st3" d="M14.43,3.9c0.01,0.01,0.02,0.03,0.02,0.04l2.61,5.18l0.24,0.47l0.52,0.07l5.8,0.8l-4.16,4.12l-0.37,0.37
			l0.09,0.52l1.03,5.76L15,18.54l-0.47-0.24l-0.46,0.25l-5.16,2.76l0.95-5.78l0.08-0.52l-0.38-0.36L5.34,10.6l5.79-0.89l0.52-0.08
			l0.23-0.47L14.43,3.9 M14.41,1.64l-3.43,7.09L3.19,9.92l5.68,5.46L7.6,23.15l6.95-3.72l7,3.61l-1.39-7.76l5.6-5.54l-7.81-1.07
			l-2.62-5.22c-0.04-0.06-0.06-0.13-0.1-0.19L14.41,1.64L14.41,1.64z"/>
	</g>
	<g class="st1">
		<polygon class="st2" points="105.41,15.2 100.27,10.26 107.31,9.18 110.42,2.77 113.62,9.13 120.68,10.11 115.62,15.12 
			116.88,22.14 110.54,18.87 104.26,22.23 		"/>
		<path class="st3" d="M110.43,3.9l2.63,5.23l0.24,0.47l0.52,0.07l5.8,0.8l-4.16,4.12l-0.37,0.37l0.09,0.52l1.03,5.76l-5.2-2.68
			l-0.47-0.24l-0.46,0.25l-5.16,2.76l0.95-5.78l0.08-0.52l-0.38-0.36l-4.22-4.05l5.79-0.89l0.52-0.08l0.23-0.47L110.43,3.9
			 M110.41,1.64l-3.43,7.09l-7.79,1.19l5.68,5.46l-1.27,7.78l6.95-3.72l7,3.61l-1.39-7.76l5.6-5.54l-7.81-1.07L110.41,1.64
			L110.41,1.64z"/>
	</g>
</g>
<g id="Layer_2" class="st0">
	<g class="st1">
		<polygon class="st2" points="57.41,15.2 52.27,10.26 59.31,9.18 62.42,2.77 65.62,9.13 72.68,10.11 67.62,15.12 68.88,22.14 
			62.54,18.87 56.26,22.23 		"/>
		<path class="st3" d="M62.43,3.9l2.63,5.23l0.24,0.47l0.52,0.07l5.8,0.8l-4.16,4.12l-0.37,0.37l0.09,0.52l1.03,5.76L63,18.54
			l-0.47-0.24l-0.46,0.25l-5.16,2.76l0.95-5.78l0.08-0.52l-0.38-0.36l-4.22-4.05l5.79-0.89l0.52-0.08l0.23-0.47L62.43,3.9
			 M62.41,1.64l-3.43,7.09l-7.79,1.19l5.68,5.46l-1.27,7.78l6.95-3.72l7,3.61l-1.39-7.76l5.6-5.54l-7.81-1.07L62.41,1.64L62.41,1.64
			z"/>
	</g>
	<g class="st1">
		<polygon class="st2" points="33.41,15.2 28.27,10.26 35.31,9.18 38.42,2.77 41.62,9.13 48.68,10.11 43.62,15.12 44.88,22.14 
			38.54,18.87 32.26,22.23 		"/>
		<path class="st3" d="M38.43,3.9l2.63,5.23l0.24,0.47l0.52,0.07l5.8,0.8l-4.16,4.12l-0.37,0.37l0.09,0.52l1.03,5.76L39,18.54
			l-0.47-0.24l-0.46,0.25l-5.16,2.76l0.95-5.78l0.08-0.52l-0.38-0.36l-4.22-4.05l5.79-0.89l0.52-0.08l0.23-0.47L38.43,3.9
			 M38.41,1.64l-3.43,7.09l-7.79,1.19l5.68,5.46l-1.27,7.78l6.95-3.72l7,3.61l-1.39-7.76l5.6-5.54l-7.81-1.07L38.41,1.64L38.41,1.64
			z"/>
	</g>
	<g class="st1">
		<polygon class="st2" points="81.41,15.2 76.27,10.26 83.31,9.18 86.42,2.77 89.62,9.13 96.68,10.11 91.62,15.12 92.88,22.14 
			86.54,18.87 80.26,22.23 		"/>
		<path class="st3" d="M86.43,3.9l2.63,5.23l0.24,0.47l0.52,0.07l5.8,0.8l-4.16,4.12l-0.37,0.37l0.09,0.52l1.03,5.76L87,18.54
			l-0.47-0.24l-0.46,0.25l-5.16,2.76l0.95-5.78l0.08-0.52l-0.38-0.36l-4.22-4.05l5.79-0.89l0.52-0.08l0.23-0.47L86.43,3.9
			 M86.41,1.64l-3.43,7.09l-7.79,1.19l5.68,5.46l-1.27,7.78l6.95-3.72l7,3.61l-1.39-7.76l5.6-5.54l-7.81-1.07L86.41,1.64L86.41,1.64
			z"/>
	</g>
	<g class="st1">
		<path class="st2" d="M9.41,15.2l-5.14-4.94l7.05-1.08l3.11-6.42l0.37,0.73c0.06,0.12,0.09,0.18,0.12,0.24l2.71,5.4l7.06,0.97
			l-5.07,5.01l1.26,7.02l-6.33-3.27l-6.28,3.36L9.41,15.2z"/>
		<path class="st3" d="M14.43,3.9c0.01,0.01,0.02,0.03,0.02,0.04l2.61,5.18l0.24,0.47l0.52,0.07l5.8,0.8l-4.16,4.12l-0.37,0.37
			l0.09,0.52l1.03,5.76L15,18.54l-0.47-0.24l-0.46,0.25l-5.16,2.76l0.95-5.78l0.08-0.52l-0.38-0.36L5.34,10.6l5.79-0.89l0.52-0.08
			l0.23-0.47L14.43,3.9 M14.41,1.64l-3.43,7.09L3.19,9.92l5.68,5.46L7.6,23.15l6.95-3.72l7,3.61l-1.39-7.76l5.6-5.54l-7.81-1.07
			l-2.62-5.22c-0.04-0.06-0.06-0.13-0.1-0.19L14.41,1.64L14.41,1.64z"/>
	</g>
	<g class="st1">
		<polygon class="st2" points="105.41,15.2 100.27,10.26 107.31,9.18 110.42,2.77 113.62,9.13 120.68,10.11 115.62,15.12 
			116.88,22.14 110.54,18.87 104.26,22.23 		"/>
		<path class="st3" d="M110.43,3.9l2.63,5.23l0.24,0.47l0.52,0.07l5.8,0.8l-4.16,4.12l-0.37,0.37l0.09,0.52l1.03,5.76l-5.2-2.68
			l-0.47-0.24l-0.46,0.25l-5.16,2.76l0.95-5.78l0.08-0.52l-0.38-0.36l-4.22-4.05l5.79-0.89l0.52-0.08l0.23-0.47L110.43,3.9
			 M110.41,1.64l-3.43,7.09l-7.79,1.19l5.68,5.46l-1.27,7.78l6.95-3.72l7,3.61l-1.39-7.76l5.6-5.54l-7.81-1.07L110.41,1.64
			L110.41,1.64z"/>
	</g>
	<g class="st1">
		<line class="st4" x1="14.5" y1="3" x2="14.5" y2="19.5"/>
	</g>
	<g class="st1">
		<g>
			<path class="st3" d="M10.8,13.33c1.93,0,1.93-3,0-3C8.87,10.33,8.87,13.33,10.8,13.33L10.8,13.33z"/>
		</g>
	</g>
	<g class="st1">
		<g>
			<path class="st3" d="M10.89,10.45c-0.01-0.01-0.02-0.02-0.03-0.03c-0.57-0.57-1.55-0.57-2.12,0c-0.57,0.57-0.57,1.55,0,2.12
				c0.01,0.01,0.02,0.02,0.03,0.03c0.57,0.57,1.55,0.57,2.12,0C11.46,11.99,11.46,11.02,10.89,10.45L10.89,10.45z"/>
		</g>
	</g>
	<g class="st1">
		<g>
			<path class="st3" d="M10.3,12.65c1.93,0,1.93-3,0-3C8.37,9.65,8.37,12.65,10.3,12.65L10.3,12.65z"/>
		</g>
	</g>
	<g class="st1">
		<g>
			<path class="st3" d="M10.75,12.62c0.03,0,0.06,0,0.09,0c0.78,0,1.54-0.69,1.5-1.5c-0.04-0.81-0.66-1.5-1.5-1.5
				c-0.03,0-0.06,0-0.09,0c-0.78,0-1.54,0.69-1.5,1.5C9.28,11.94,9.9,12.62,10.75,12.62L10.75,12.62z"/>
		</g>
	</g>
	<g class="st1">
		<g>
			<path class="st3" d="M11.72,12.62c1.93,0,1.93-3,0-3C9.79,9.62,9.79,12.62,11.72,12.62L11.72,12.62z"/>
		</g>
	</g>
	<g class="st1">
		<g>
			<path class="st3" d="M12.72,12.27c0.02-0.01,0.04-0.02,0.06-0.03c0.72-0.37,0.93-1.38,0.54-2.05c-0.43-0.73-1.33-0.91-2.05-0.54
				c-0.02,0.01-0.04,0.02-0.06,0.03c-0.72,0.37-0.93,1.38-0.54,2.05C11.09,12.47,11.99,12.64,12.72,12.27L12.72,12.27z"/>
		</g>
	</g>
	<g class="st1">
		<g>
			<path class="st3" d="M13.49,11.53c0.02-0.03,0.04-0.06,0.06-0.09c0.45-0.67,0.13-1.66-0.54-2.05c-0.74-0.43-1.6-0.14-2.05,0.54
				c-0.02,0.03-0.04,0.06-0.06,0.09c-0.45,0.67-0.13,1.66,0.54,2.05C12.17,12.49,13.04,12.2,13.49,11.53L13.49,11.53z"/>
		</g>
	</g>
	<g class="st1">
		<g>
			<path class="st3" d="M13.73,11c0.02-0.03,0.04-0.06,0.06-0.09c0.46-0.67,0.12-1.66-0.54-2.05c-0.74-0.44-1.59-0.13-2.05,0.54
				c-0.02,0.03-0.04,0.06-0.06,0.09c-0.46,0.67-0.12,1.66,0.54,2.05C12.42,11.97,13.27,11.66,13.73,11L13.73,11z"/>
		</g>
	</g>
	<g class="st1">
		<g>
			<path class="st3" d="M13.99,9.97c0-0.01,0-0.02,0-0.03c0-0.78-0.69-1.54-1.5-1.5c-0.81,0.04-1.5,0.66-1.5,1.5
				c0,0.01,0,0.02,0,0.03c0,0.78,0.69,1.54,1.5,1.5C13.3,11.43,13.99,10.81,13.99,9.97L13.99,9.97z"/>
		</g>
	</g>
	<g class="st1">
		<g>
			<path class="st3" d="M14.05,10.04c0.01-0.03,0.02-0.06,0.03-0.09c0.25-0.74-0.29-1.67-1.05-1.85c-0.83-0.19-1.57,0.25-1.85,1.05
				c-0.01,0.03-0.02,0.06-0.03,0.09c-0.25,0.74,0.29,1.67,1.05,1.85C13.04,11.28,13.78,10.84,14.05,10.04L14.05,10.04z"/>
		</g>
	</g>
	<g class="st1">
		<g>
			<path class="st3" d="M12.79,10.61c1.93,0,1.93-3,0-3C10.86,7.61,10.85,10.61,12.79,10.61L12.79,10.61z"/>
		</g>
	</g>
	<g class="st1">
		<g>
			<path class="st3" d="M11.32,16.05c-0.07,0.06-0.14,0.11-0.21,0.17c-1.2,0.96,0.1,2.91,1.46,2.51c0.14-0.02,0.27-0.07,0.4-0.13
				c-0.48-0.37-0.96-0.73-1.45-1.1c-0.02-0.39-0.05-0.36-0.1,0.09c0.98,0.13,1.96,0.27,2.95,0.4c0.01-2.35,0.03-4.69,0.04-7.04
				c0.01-1.93-2.99-1.93-3,0c-0.01,2.35-0.03,4.69-0.04,7.04c-0.01,1.64,2.65,2.11,2.95,0.4c0.1-0.59,0.2-1.09,0.1-1.69
				c-0.12-0.65-0.83-1.08-1.45-1.1c-0.42-0.01-0.8,0.12-1.19,0.24c0.49,0.84,0.97,1.67,1.46,2.51c0.07-0.06,0.14-0.11,0.21-0.17
				C14.95,16.97,12.82,14.86,11.32,16.05L11.32,16.05z"/>
		</g>
	</g>
	<g class="st1">
		<g>
			<path class="st3" d="M11.81,11.54c-0.78,0.31-1.63-0.31-2.38-0.53c-1.7-0.5-2.52,1.82-1.16,2.74c0.55,0.37,0.85,1.03,1.2,1.57
				c0.34,0.52,0.92,0.91,0.58,1.53c0.93,0.25,1.86,0.5,2.8,0.76c-0.02-1.31-0.03-3.57-2.05-3.12c-1.43,0.32-1.86,2.28-1.91,3.51
				c-0.07,1.93,2.93,1.93,3,0c-0.02-0.21,0.01-0.41,0.09-0.61c0.23-0.4,0.1-0.4-0.38-0.01c-0.49-0.13-0.97-0.26-1.46-0.39
				c-0.28-0.57-0.38-0.6-0.3-0.09c0,0.24,0.01,0.47,0.01,0.71c0.02,1.44,2.07,2.1,2.8,0.76c0.76-1.42,0.71-2.75-0.23-4.05
				c-0.83-1.15-1.42-2.33-2.63-3.15c-0.39,0.91-0.77,1.83-1.16,2.74c1.34,0.4,2.55,1.09,3.98,0.53
				C14.38,13.73,13.61,10.83,11.81,11.54L11.81,11.54z"/>
		</g>
	</g>
	<g class="st1">
		<g>
			<path class="st3" d="M10.55,18.2c0.08-0.21,0.32-0.43,0.46-0.6c-0.05,0.01-0.1,0.02-0.15,0.03c0.15-0.01,0.16-0.02,0.04-0.02
				c-0.31-0.04-0.62-0.03-0.91,0.08c-0.75,0.29-1.28,1.01-1.05,1.85c0.2,0.72,1.09,1.34,1.85,1.05c-0.12,0.05-0.13,0,0.03,0.02
				c0.1,0.01,0.19,0.01,0.29,0c0.35-0.03,0.69-0.1,1.02-0.23c0.66-0.26,1.05-0.72,1.3-1.38c0.28-0.73-0.31-1.68-1.05-1.85
				C11.54,16.96,10.85,17.42,10.55,18.2L10.55,18.2z"/>
		</g>
	</g>
	<g class="st1">
		<g>
			<path class="st3" d="M9.83,9.77C9.27,9.79,8.71,9.83,8.14,9.89c-0.54,0.06-1.01,0.25-1.3,0.74c-0.25,0.43-0.31,1.09,0,1.51
				c0.06,0.08,0.12,0.16,0.17,0.24c0.48,0.65,1.3,0.98,2.05,0.54c0.64-0.38,1.02-1.4,0.54-2.05c-0.06-0.08-0.12-0.16-0.17-0.24
				c-0.43,0.75-0.86,1.5-1.3,2.26c0.56-0.06,1.12-0.1,1.68-0.12c0.78-0.03,1.54-0.67,1.5-1.5C11.29,10.49,10.67,9.73,9.83,9.77
				L9.83,9.77z"/>
		</g>
	</g>
	<g class="st1">
		<g>
			<path class="st3" d="M6.9,10.17c-0.46-0.05-0.92-0.08-1.39-0.09c-0.76-0.01-1,1.01-0.38,1.4c0.61,0.38,1.22,0.75,1.83,1.11
				c0.83,0.49,1.59-0.81,0.76-1.3c-0.61-0.36-1.22-0.73-1.83-1.11c-0.13,0.47-0.25,0.93-0.38,1.4c0.46,0,0.92,0.03,1.39,0.09
				c0.4,0.05,0.75-0.38,0.75-0.75C7.65,10.48,7.31,10.22,6.9,10.17L6.9,10.17z"/>
		</g>
	</g>
	<g class="st1">
		<g>
			<path class="st3" d="M13.6,8.29c0.43-0.95,0.75-1.91,0.95-2.94c-0.49-0.07-0.98-0.13-1.47-0.2c0.02,1.39-0.01,2.78-0.05,4.17
				c-0.03,0.97,1.47,0.96,1.5,0c0.04-1.39,0.07-2.78,0.05-4.17c-0.01-0.81-1.31-1.06-1.47-0.2c-0.17,0.89-0.42,1.75-0.8,2.58
				C11.91,8.4,13.21,9.17,13.6,8.29L13.6,8.29z"/>
		</g>
	</g>
	<g class="st1">
		<g>
			<path class="st3" d="M10.06,19.61c-0.59-0.02-0.81,0.36-1.26,0.63c0.37,0.28,0.73,0.56,1.1,0.85c0.01-0.04,0.02-0.07,0.03-0.11
				c0.22-0.94-1.22-1.34-1.45-0.4c-0.01,0.04-0.02,0.07-0.03,0.11c-0.15,0.62,0.52,1.19,1.1,0.85c0.13-0.08,0.25-0.17,0.37-0.27
				c0.03-0.03,0.06-0.06,0.1-0.09c0.12-0.1,0.13-0.12,0.04-0.06C11.03,21.13,11.03,19.63,10.06,19.61L10.06,19.61z"/>
		</g>
	</g>
</g>
<g id="Layer_3" class="st0">
	<g class="st1">
		<polygon class="st2" points="57.41,15.2 52.27,10.26 59.31,9.18 62.42,2.77 65.62,9.13 72.68,10.11 67.62,15.12 68.88,22.14 
			62.54,18.87 56.26,22.23 		"/>
		<path class="st3" d="M62.43,3.9l2.63,5.23l0.24,0.47l0.52,0.07l5.8,0.8l-4.16,4.12l-0.37,0.37l0.09,0.52l1.03,5.76L63,18.54
			l-0.47-0.24l-0.46,0.25l-5.16,2.76l0.95-5.78l0.08-0.52l-0.38-0.36l-4.22-4.05l5.79-0.89l0.52-0.08l0.23-0.47L62.43,3.9
			 M62.41,1.64l-3.43,7.09l-7.79,1.19l5.68,5.46l-1.27,7.78l6.95-3.72l7,3.61l-1.39-7.76l5.6-5.54l-7.81-1.07L62.41,1.64L62.41,1.64
			z"/>
	</g>
	<g class="st1">
		<polygon class="st2" points="33.41,15.2 28.27,10.26 35.31,9.18 38.42,2.77 41.62,9.13 48.68,10.11 43.62,15.12 44.88,22.14 
			38.54,18.87 32.26,22.23 		"/>
		<path class="st3" d="M38.43,3.9l2.63,5.23l0.24,0.47l0.52,0.07l5.8,0.8l-4.16,4.12l-0.37,0.37l0.09,0.52l1.03,5.76L39,18.54
			l-0.47-0.24l-0.46,0.25l-5.16,2.76l0.95-5.78l0.08-0.52l-0.38-0.36l-4.22-4.05l5.79-0.89l0.52-0.08l0.23-0.47L38.43,3.9
			 M38.41,1.64l-3.43,7.09l-7.79,1.19l5.68,5.46l-1.27,7.78l6.95-3.72l7,3.61l-1.39-7.76l5.6-5.54l-7.81-1.07L38.41,1.64L38.41,1.64
			z"/>
	</g>
	<g class="st1">
		<polygon class="st2" points="81.41,15.2 76.27,10.26 83.31,9.18 86.42,2.77 89.62,9.13 96.68,10.11 91.62,15.12 92.88,22.14 
			86.54,18.87 80.26,22.23 		"/>
		<path class="st3" d="M86.43,3.9l2.63,5.23l0.24,0.47l0.52,0.07l5.8,0.8l-4.16,4.12l-0.37,0.37l0.09,0.52l1.03,5.76L87,18.54
			l-0.47-0.24l-0.46,0.25l-5.16,2.76l0.95-5.78l0.08-0.52l-0.38-0.36l-4.22-4.05l5.79-0.89l0.52-0.08l0.23-0.47L86.43,3.9
			 M86.41,1.64l-3.43,7.09l-7.79,1.19l5.68,5.46l-1.27,7.78l6.95-3.72l7,3.61l-1.39-7.76l5.6-5.54l-7.81-1.07L86.41,1.64L86.41,1.64
			z"/>
	</g>
	<g class="st1">
		<path class="st3" d="M9.41,15.2l-5.14-4.94l7.05-1.08l3.11-6.42l0.37,0.73c0.06,0.12,0.09,0.18,0.12,0.24l2.71,5.4l7.06,0.97
			l-5.07,5.01l1.26,7.02l-6.33-3.27l-6.28,3.36L9.41,15.2z"/>
		<path class="st3" d="M14.43,3.9c0.01,0.01,0.02,0.03,0.02,0.04l2.61,5.18l0.24,0.47l0.52,0.07l5.8,0.8l-4.16,4.12l-0.37,0.37
			l0.09,0.52l1.03,5.76L15,18.54l-0.47-0.24l-0.46,0.25l-5.16,2.76l0.95-5.78l0.08-0.52l-0.38-0.36L5.34,10.6l5.79-0.89l0.52-0.08
			l0.23-0.47L14.43,3.9 M14.41,1.64l-3.43,7.09L3.19,9.92l5.68,5.46L7.6,23.15l6.95-3.72l7,3.61l-1.39-7.76l5.6-5.54l-7.81-1.07
			l-2.62-5.22c-0.04-0.06-0.06-0.13-0.1-0.19L14.41,1.64L14.41,1.64z"/>
	</g>
	<g class="st1">
		<polygon class="st2" points="105.41,15.2 100.27,10.26 107.31,9.18 110.42,2.77 113.62,9.13 120.68,10.11 115.62,15.12 
			116.88,22.14 110.54,18.87 104.26,22.23 		"/>
		<path class="st3" d="M110.43,3.9l2.63,5.23l0.24,0.47l0.52,0.07l5.8,0.8l-4.16,4.12l-0.37,0.37l0.09,0.52l1.03,5.76l-5.2-2.68
			l-0.47-0.24l-0.46,0.25l-5.16,2.76l0.95-5.78l0.08-0.52l-0.38-0.36l-4.22-4.05l5.79-0.89l0.52-0.08l0.23-0.47L110.43,3.9
			 M110.41,1.64l-3.43,7.09l-7.79,1.19l5.68,5.46l-1.27,7.78l6.95-3.72l7,3.61l-1.39-7.76l5.6-5.54l-7.81-1.07L110.41,1.64
			L110.41,1.64z"/>
	</g>
	<g class="st1">
		<line class="st4" x1="14.5" y1="3" x2="14.5" y2="19.5"/>
		<line class="st5" x1="14.5" y1="3" x2="14.5" y2="19.5"/>
	</g>
	<g class="st1">
		<path class="st5" d="M10.8,11.83"/>
		<g>
			<path class="st3" d="M10.8,13.33c1.93,0,1.93-3,0-3C8.87,10.33,8.87,13.33,10.8,13.33L10.8,13.33z"/>
		</g>
	</g>
	<g class="st1">
		<path class="st5" d="M9.83,11.51c-0.01-0.01-0.02-0.02-0.03-0.03"/>
		<g>
			<path class="st3" d="M10.89,10.45c-0.01-0.01-0.02-0.02-0.03-0.03c-0.57-0.57-1.55-0.57-2.12,0c-0.57,0.57-0.57,1.55,0,2.12
				c0.01,0.01,0.02,0.02,0.03,0.03c0.57,0.57,1.55,0.57,2.12,0C11.46,11.99,11.46,11.02,10.89,10.45L10.89,10.45z"/>
		</g>
	</g>
	<g class="st1">
		<path class="st5" d="M10.3,11.15"/>
		<g>
			<path class="st3" d="M10.3,12.65c1.93,0,1.93-3,0-3C8.37,9.65,8.37,12.65,10.3,12.65L10.3,12.65z"/>
		</g>
	</g>
	<g class="st1">
		<path class="st5" d="M10.75,11.12c0.03,0,0.06,0,0.09,0"/>
		<g>
			<path class="st3" d="M10.75,12.62c0.03,0,0.06,0,0.09,0c0.78,0,1.54-0.69,1.5-1.5c-0.04-0.81-0.66-1.5-1.5-1.5
				c-0.03,0-0.06,0-0.09,0c-0.78,0-1.54,0.69-1.5,1.5C9.28,11.94,9.9,12.62,10.75,12.62L10.75,12.62z"/>
		</g>
	</g>
	<g class="st1">
		<path class="st5" d="M11.72,11.12"/>
		<g>
			<path class="st3" d="M11.72,12.62c1.93,0,1.93-3,0-3C9.79,9.62,9.79,12.62,11.72,12.62L11.72,12.62z"/>
		</g>
	</g>
	<g class="st1">
		<path class="st5" d="M11.96,10.98c0.02-0.01,0.04-0.02,0.06-0.03"/>
		<g>
			<path class="st3" d="M12.72,12.27c0.02-0.01,0.04-0.02,0.06-0.03c0.72-0.37,0.93-1.38,0.54-2.05c-0.43-0.73-1.33-0.91-2.05-0.54
				c-0.02,0.01-0.04,0.02-0.06,0.03c-0.72,0.37-0.93,1.38-0.54,2.05C11.09,12.47,11.99,12.64,12.72,12.27L12.72,12.27z"/>
		</g>
	</g>
	<g class="st1">
		<path class="st5" d="M12.2,10.77c0.02-0.03,0.04-0.06,0.06-0.09"/>
		<g>
			<path class="st3" d="M13.49,11.53c0.02-0.03,0.04-0.06,0.06-0.09c0.45-0.67,0.13-1.66-0.54-2.05c-0.74-0.43-1.6-0.14-2.05,0.54
				c-0.02,0.03-0.04,0.06-0.06,0.09c-0.45,0.67-0.13,1.66,0.54,2.05C12.17,12.49,13.04,12.2,13.49,11.53L13.49,11.53z"/>
		</g>
	</g>
	<g class="st1">
		<path class="st5" d="M12.44,10.24c0.02-0.03,0.04-0.06,0.06-0.09"/>
		<g>
			<path class="st3" d="M13.73,11c0.02-0.03,0.04-0.06,0.06-0.09c0.46-0.67,0.12-1.66-0.54-2.05c-0.74-0.44-1.59-0.13-2.05,0.54
				c-0.02,0.03-0.04,0.06-0.06,0.09c-0.46,0.67-0.12,1.66,0.54,2.05C12.42,11.97,13.27,11.66,13.73,11L13.73,11z"/>
		</g>
	</g>
	<g class="st1">
		<path class="st5" d="M12.49,9.97c0-0.01,0-0.02,0-0.03"/>
		<g>
			<path class="st3" d="M13.99,9.97c0-0.01,0-0.02,0-0.03c0-0.78-0.69-1.54-1.5-1.5c-0.81,0.04-1.5,0.66-1.5,1.5
				c0,0.01,0,0.02,0,0.03c0,0.78,0.69,1.54,1.5,1.5C13.3,11.43,13.99,10.81,13.99,9.97L13.99,9.97z"/>
		</g>
	</g>
	<g class="st1">
		<path class="st5" d="M12.61,9.64c0.01-0.03,0.02-0.06,0.03-0.09"/>
		<g>
			<path class="st3" d="M14.05,10.04c0.01-0.03,0.02-0.06,0.03-0.09c0.25-0.74-0.29-1.67-1.05-1.85c-0.83-0.19-1.57,0.25-1.85,1.05
				c-0.01,0.03-0.02,0.06-0.03,0.09c-0.25,0.74,0.29,1.67,1.05,1.85C13.04,11.28,13.78,10.84,14.05,10.04L14.05,10.04z"/>
		</g>
	</g>
	<g class="st1">
		<path class="st5" d="M12.79,9.11"/>
		<g>
			<path class="st3" d="M12.79,10.61c1.93,0,1.93-3,0-3C10.86,7.61,10.85,10.61,12.79,10.61L12.79,10.61z"/>
		</g>
	</g>
	<g class="st1">
		<path class="st5" d="M12.38,17.11c-0.07,0.06-0.14,0.11-0.21,0.17c0.21-0.06,0.43-0.13,0.64-0.19c0.05-0.02,0.11-0.03,0.16,0
			c0.05,0.04,0.04,0.11,0.03,0.17c-0.04,0.24-0.08,0.48-0.13,0.72c0.01-2.35,0.03-4.69,0.04-7.04"/>
		<g>
			<path class="st3" d="M11.32,16.05c-0.07,0.06-0.14,0.11-0.21,0.17c-1.2,0.96,0.1,2.91,1.46,2.51c0.14-0.02,0.27-0.07,0.4-0.13
				c-0.48-0.37-0.96-0.73-1.45-1.1c-0.02-0.39-0.05-0.36-0.1,0.09c0.98,0.13,1.96,0.27,2.95,0.4c0.01-2.35,0.03-4.69,0.04-7.04
				c0.01-1.93-2.99-1.93-3,0c-0.01,2.35-0.03,4.69-0.04,7.04c-0.01,1.64,2.65,2.11,2.95,0.4c0.1-0.59,0.2-1.09,0.1-1.69
				c-0.12-0.65-0.83-1.08-1.45-1.1c-0.42-0.01-0.8,0.12-1.19,0.24c0.49,0.84,0.97,1.67,1.46,2.51c0.07-0.06,0.14-0.11,0.21-0.17
				C14.95,16.97,12.82,14.86,11.32,16.05L11.32,16.05z"/>
		</g>
	</g>
	<g class="st1">
		<path class="st5" d="M12.21,12.99c-0.49,0.26-1.09,0.2-1.62,0.03c-0.53-0.17-1.02-0.43-1.56-0.57c0.97,0.58,1.41,1.72,2.09,2.61
			c0.17,0.22,0.35,0.43,0.46,0.68c0.27,0.59,0.11,1.3-0.24,1.85c-0.01-0.47-0.01-0.94-0.02-1.41c0-0.1-0.02-0.24-0.12-0.26
			c-0.09-0.02-0.17,0.06-0.23,0.14c-0.39,0.56-0.59,1.24-0.58,1.92"/>
		<g>
			<path class="st3" d="M11.81,11.54c-0.78,0.31-1.63-0.31-2.38-0.53c-1.7-0.5-2.52,1.82-1.16,2.74c0.55,0.37,0.85,1.03,1.2,1.57
				c0.34,0.52,0.92,0.91,0.58,1.53c0.93,0.25,1.86,0.5,2.8,0.76c-0.02-1.31-0.03-3.57-2.05-3.12c-1.43,0.32-1.86,2.28-1.91,3.51
				c-0.07,1.93,2.93,1.93,3,0c-0.02-0.21,0.01-0.41,0.09-0.61c0.23-0.4,0.1-0.4-0.38-0.01c-0.49-0.13-0.97-0.26-1.46-0.39
				c-0.28-0.57-0.38-0.6-0.3-0.09c0,0.24,0.01,0.47,0.01,0.71c0.02,1.44,2.07,2.1,2.8,0.76c0.76-1.42,0.71-2.75-0.23-4.05
				c-0.83-1.15-1.42-2.33-2.63-3.15c-0.39,0.91-0.77,1.83-1.16,2.74c1.34,0.4,2.55,1.09,3.98,0.53
				C14.38,13.73,13.61,10.83,11.81,11.54L11.81,11.54z"/>
		</g>
	</g>
	<g class="st1">
		<path class="st5" d="M12,18.6c-0.04,0.15-0.16,0.27-0.29,0.35c-0.14,0.07-0.29,0.11-0.45,0.14c-0.09,0.02-0.19,0.04-0.28,0.04
			c-0.2,0-0.42-0.09-0.59,0.02"/>
		<g>
			<path class="st3" d="M10.55,18.2c0.08-0.21,0.32-0.43,0.46-0.6c-0.05,0.01-0.1,0.02-0.15,0.03c0.15-0.01,0.16-0.02,0.04-0.02
				c-0.31-0.04-0.62-0.03-0.91,0.08c-0.75,0.29-1.28,1.01-1.05,1.85c0.2,0.72,1.09,1.34,1.85,1.05c-0.12,0.05-0.13,0,0.03,0.02
				c0.1,0.01,0.19,0.01,0.29,0c0.35-0.03,0.69-0.1,1.02-0.23c0.66-0.26,1.05-0.72,1.3-1.38c0.28-0.73-0.31-1.68-1.05-1.85
				C11.54,16.96,10.85,17.42,10.55,18.2L10.55,18.2z"/>
		</g>
	</g>
	<g class="st1">
		<path class="st5" d="M9.83,11.27c-0.56,0.02-1.12,0.06-1.68,0.12c0.06,0.08,0.12,0.16,0.17,0.24"/>
		<g>
			<path class="st3" d="M9.83,9.77C9.27,9.79,8.71,9.83,8.14,9.89c-0.54,0.06-1.01,0.25-1.3,0.74c-0.25,0.43-0.31,1.09,0,1.51
				c0.06,0.08,0.12,0.16,0.17,0.24c0.48,0.65,1.3,0.98,2.05,0.54c0.64-0.38,1.02-1.4,0.54-2.05c-0.06-0.08-0.12-0.16-0.17-0.24
				c-0.43,0.75-0.86,1.5-1.3,2.26c0.56-0.06,1.12-0.1,1.68-0.12c0.78-0.03,1.54-0.67,1.5-1.5C11.29,10.49,10.67,9.73,9.83,9.77
				L9.83,9.77z"/>
		</g>
	</g>
	<g class="st1">
		<path class="st5" d="M12.96,7.91c0.41-0.88,0.7-1.81,0.87-2.76c0.03,1.39-0.01,2.78-0.05,4.17"/>
		<g>
			<path class="st3" d="M13.6,8.29c0.43-0.95,0.75-1.91,0.95-2.94c-0.49-0.07-0.98-0.13-1.47-0.2c0.02,1.39-0.01,2.78-0.05,4.17
				c-0.03,0.97,1.47,0.96,1.5,0c0.04-1.39,0.07-2.78,0.05-4.17c-0.01-0.81-1.31-1.06-1.47-0.2c-0.17,0.89-0.42,1.75-0.8,2.58
				C11.91,8.4,13.21,9.17,13.6,8.29L13.6,8.29z"/>
		</g>
	</g>
	<g class="st1">
		<path class="st5" d="M10.06,20.36c-0.17-0.04-0.35,0.07-0.48,0.19c-0.13,0.12-0.25,0.26-0.41,0.34c-0.01-0.04,0-0.08,0.03-0.11"/>
		<g>
			<path class="st3" d="M10.06,19.61c-0.59-0.02-0.81,0.36-1.26,0.63c0.37,0.28,0.73,0.56,1.1,0.85c0.01-0.04,0.02-0.07,0.03-0.11
				c0.22-0.94-1.22-1.34-1.45-0.4c-0.01,0.04-0.02,0.07-0.03,0.11c-0.15,0.62,0.52,1.19,1.1,0.85c0.13-0.08,0.25-0.17,0.37-0.27
				c0.03-0.03,0.06-0.06,0.1-0.09c0.12-0.1,0.13-0.12,0.04-0.06C11.03,21.13,11.03,19.63,10.06,19.61L10.06,19.61z"/>
		</g>
	</g>
	<g class="st1">
		<g>
			<path class="st3" d="M6.8,12.67c1.93,0,1.93-3,0-3C4.87,9.67,4.87,12.67,6.8,12.67L6.8,12.67z"/>
		</g>
	</g>
</g>
<g id="Layer_4">
	<g>
		<polygon class="st3" points="57.41,15.2 52.27,10.26 59.31,9.18 62.42,2.77 65.62,9.13 72.68,10.11 67.62,15.12 68.88,22.14 
			62.54,18.87 56.26,22.23 		"/>
		<path class="st3" d="M62.43,3.9l2.63,5.23l0.24,0.47l0.52,0.07l5.8,0.8l-4.16,4.12l-0.37,0.37l0.09,0.52l1.03,5.76L63,18.54
			l-0.47-0.24l-0.46,0.25l-5.16,2.76l0.95-5.78l0.08-0.52l-0.38-0.36l-4.22-4.05l5.79-0.89l0.52-0.08l0.23-0.47L62.43,3.9
			 M62.41,1.64l-3.43,7.09l-7.79,1.19l5.68,5.46l-1.27,7.78l6.95-3.72l7,3.61l-1.39-7.76l5.6-5.54l-7.81-1.07L62.41,1.64L62.41,1.64
			z"/>
	</g>
	<g>
		<polygon class="st3" points="33.41,15.2 28.27,10.26 35.31,9.18 38.42,2.77 41.62,9.13 48.68,10.11 43.62,15.12 44.88,22.14 
			38.54,18.87 32.26,22.23 		"/>
		<path class="st3" d="M38.43,3.9l2.63,5.23l0.24,0.47l0.52,0.07l5.8,0.8l-4.16,4.12l-0.37,0.37l0.09,0.52l1.03,5.76L39,18.54
			l-0.47-0.24l-0.46,0.25l-5.16,2.76l0.95-5.78l0.08-0.52l-0.38-0.36l-4.22-4.05l5.79-0.89l0.52-0.08l0.23-0.47L38.43,3.9
			 M38.41,1.64l-3.43,7.09l-7.79,1.19l5.68,5.46l-1.27,7.78l6.95-3.72l7,3.61l-1.39-7.76l5.6-5.54l-7.81-1.07L38.41,1.64L38.41,1.64
			z"/>
	</g>
	<g>
		<polygon class="st3" points="81.41,15.2 76.27,10.26 83.31,9.18 86.42,2.77 89.62,9.13 96.68,10.11 91.62,15.12 92.88,22.14 
			86.54,18.87 80.26,22.23 		"/>
		<path class="st3" d="M86.43,3.9l2.63,5.23l0.24,0.47l0.52,0.07l5.8,0.8l-4.16,4.12l-0.37,0.37l0.09,0.52l1.03,5.76L87,18.54
			l-0.47-0.24l-0.46,0.25l-5.16,2.76l0.95-5.78l0.08-0.52l-0.38-0.36l-4.22-4.05l5.79-0.89l0.52-0.08l0.23-0.47L86.43,3.9
			 M86.41,1.64l-3.43,7.09l-7.79,1.19l5.68,5.46l-1.27,7.78l6.95-3.72l7,3.61l-1.39-7.76l5.6-5.54l-7.81-1.07L86.41,1.64L86.41,1.64
			z"/>
	</g>
	<g>
		<path class="st3" d="M9.41,15.2l-5.14-4.94l7.05-1.08l3.11-6.42l0.37,0.73c0.06,0.12,0.09,0.18,0.12,0.24l2.71,5.4l7.06,0.97
			l-5.07,5.01l1.26,7.02l-6.33-3.27l-6.28,3.37L9.41,15.2z"/>
		<path class="st3" d="M14.43,3.9c0.01,0.01,0.02,0.03,0.02,0.04l2.61,5.18l0.24,0.47l0.52,0.07l5.8,0.8l-4.16,4.12l-0.37,0.37
			l0.09,0.52l1.03,5.76L15,18.54l-0.47-0.24l-0.46,0.25l-5.16,2.76l0.95-5.78l0.08-0.52l-0.38-0.36L5.34,10.6l5.79-0.89l0.52-0.08
			l0.23-0.47L14.43,3.9 M14.41,1.64l-3.43,7.09L3.19,9.92l5.68,5.46L7.6,23.15l6.95-3.72l7,3.61l-1.39-7.76l5.6-5.54l-7.81-1.07
			l-2.62-5.22c-0.04-0.06-0.06-0.13-0.1-0.19L14.41,1.64L14.41,1.64z"/>
	</g>
	<g>
		<polygon class="st2" points="105.41,15.2 100.27,10.26 107.31,9.18 110.42,2.77 113.62,9.13 120.68,10.11 115.62,15.12 
			116.88,22.14 110.54,18.87 104.26,22.23 		"/>
		<path class="st3" d="M110.43,3.9l2.63,5.23l0.24,0.47l0.52,0.07l5.8,0.8l-4.16,4.12l-0.37,0.37l0.09,0.52l1.03,5.76l-5.2-2.68
			l-0.47-0.24l-0.46,0.25l-5.16,2.76l0.95-5.78l0.08-0.52l-0.38-0.36l-4.22-4.05l5.79-0.89l0.52-0.08l0.23-0.47L110.43,3.9
			 M110.41,1.64l-3.43,7.09l-7.79,1.19l5.68,5.46l-1.27,7.78l6.95-3.72l7,3.61l-1.39-7.76l5.6-5.54l-7.81-1.07L110.41,1.64
			L110.41,1.64z"/>
	</g>
	<g>
		<line class="st4" x1="14.5" y1="3" x2="14.5" y2="19.5"/>
		<line class="st5" x1="14.5" y1="3" x2="14.5" y2="19.5"/>
	</g>
	<g>
		<path class="st5" d="M10.8,11.83"/>
		<g>
			<path class="st3" d="M10.8,13.33c1.93,0,1.93-3,0-3C8.87,10.33,8.87,13.33,10.8,13.33L10.8,13.33z"/>
		</g>
	</g>
	<g>
		<path class="st5" d="M9.83,11.51c-0.01-0.01-0.02-0.02-0.03-0.03"/>
		<g>
			<path class="st3" d="M10.89,10.45c-0.01-0.01-0.02-0.02-0.03-0.03c-0.57-0.57-1.55-0.57-2.12,0c-0.57,0.57-0.57,1.55,0,2.12
				c0.01,0.01,0.02,0.02,0.03,0.03c0.57,0.57,1.55,0.57,2.12,0C11.46,11.99,11.46,11.02,10.89,10.45L10.89,10.45z"/>
		</g>
	</g>
	<g>
		<path class="st5" d="M10.3,11.15"/>
		<g>
			<path class="st3" d="M10.3,12.65c1.93,0,1.93-3,0-3C8.37,9.65,8.37,12.65,10.3,12.65L10.3,12.65z"/>
		</g>
	</g>
	<g>
		<path class="st5" d="M10.75,11.12c0.03,0,0.06,0,0.09,0"/>
		<g>
			<path class="st3" d="M10.75,12.62c0.03,0,0.06,0,0.09,0c0.78,0,1.54-0.69,1.5-1.5c-0.04-0.81-0.66-1.5-1.5-1.5
				c-0.03,0-0.06,0-0.09,0c-0.78,0-1.54,0.69-1.5,1.5C9.28,11.94,9.9,12.62,10.75,12.62L10.75,12.62z"/>
		</g>
	</g>
	<g>
		<path class="st5" d="M11.72,11.12"/>
		<g>
			<path class="st3" d="M11.72,12.62c1.93,0,1.93-3,0-3C9.79,9.62,9.79,12.62,11.72,12.62L11.72,12.62z"/>
		</g>
	</g>
	<g>
		<path class="st5" d="M11.96,10.98c0.02-0.01,0.04-0.02,0.06-0.03"/>
		<g>
			<path class="st3" d="M12.72,12.27c0.02-0.01,0.04-0.02,0.06-0.03c0.72-0.37,0.93-1.38,0.54-2.05c-0.43-0.73-1.33-0.91-2.05-0.54
				c-0.02,0.01-0.04,0.02-0.06,0.03c-0.72,0.37-0.93,1.38-0.54,2.05C11.09,12.47,11.99,12.64,12.72,12.27L12.72,12.27z"/>
		</g>
	</g>
	<g>
		<path class="st5" d="M12.2,10.77c0.02-0.03,0.04-0.06,0.06-0.09"/>
		<g>
			<path class="st3" d="M13.49,11.53c0.02-0.03,0.04-0.06,0.06-0.09c0.45-0.67,0.13-1.66-0.54-2.05c-0.74-0.43-1.6-0.14-2.05,0.54
				c-0.02,0.03-0.04,0.06-0.06,0.09c-0.45,0.67-0.13,1.66,0.54,2.05C12.17,12.49,13.04,12.2,13.49,11.53L13.49,11.53z"/>
		</g>
	</g>
	<g>
		<path class="st5" d="M12.44,10.24c0.02-0.03,0.04-0.06,0.06-0.09"/>
		<g>
			<path class="st3" d="M13.73,11c0.02-0.03,0.04-0.06,0.06-0.09c0.46-0.67,0.12-1.66-0.54-2.05c-0.74-0.44-1.59-0.13-2.05,0.54
				c-0.02,0.03-0.04,0.06-0.06,0.09c-0.46,0.67-0.12,1.66,0.54,2.05C12.42,11.97,13.27,11.66,13.73,11L13.73,11z"/>
		</g>
	</g>
	<g>
		<path class="st5" d="M12.49,9.97c0-0.01,0-0.02,0-0.03"/>
		<g>
			<path class="st3" d="M13.99,9.97c0-0.01,0-0.02,0-0.03c0-0.78-0.69-1.54-1.5-1.5c-0.81,0.04-1.5,0.66-1.5,1.5
				c0,0.01,0,0.02,0,0.03c0,0.78,0.69,1.54,1.5,1.5C13.3,11.43,13.99,10.81,13.99,9.97L13.99,9.97z"/>
		</g>
	</g>
	<g>
		<path class="st5" d="M12.61,9.64c0.01-0.03,0.02-0.06,0.03-0.09"/>
		<g>
			<path class="st3" d="M14.05,10.04c0.01-0.03,0.02-0.06,0.03-0.09c0.25-0.74-0.29-1.67-1.05-1.85c-0.83-0.19-1.57,0.25-1.85,1.05
				c-0.01,0.03-0.02,0.06-0.03,0.09c-0.25,0.74,0.29,1.67,1.05,1.85C13.04,11.28,13.78,10.84,14.05,10.04L14.05,10.04z"/>
		</g>
	</g>
	<g>
		<path class="st5" d="M12.79,9.11"/>
		<g>
			<path class="st3" d="M12.79,10.61c1.93,0,1.93-3,0-3C10.86,7.61,10.85,10.61,12.79,10.61L12.79,10.61z"/>
		</g>
	</g>
	<g>
		<path class="st5" d="M12.38,17.11c-0.07,0.06-0.14,0.11-0.21,0.17c0.21-0.06,0.43-0.13,0.64-0.19c0.05-0.02,0.11-0.03,0.16,0
			c0.05,0.04,0.04,0.11,0.03,0.17c-0.04,0.24-0.08,0.48-0.13,0.72c0.01-2.35,0.03-4.69,0.04-7.04"/>
		<g>
			<path class="st3" d="M11.32,16.05c-0.07,0.06-0.14,0.11-0.21,0.17c-1.2,0.96,0.1,2.91,1.46,2.51c0.14-0.02,0.27-0.07,0.4-0.13
				c-0.48-0.37-0.96-0.73-1.45-1.1c-0.02-0.39-0.05-0.36-0.1,0.09c0.98,0.13,1.96,0.27,2.95,0.4c0.01-2.35,0.03-4.69,0.04-7.04
				c0.01-1.93-2.99-1.93-3,0c-0.01,2.35-0.03,4.69-0.04,7.04c-0.01,1.64,2.65,2.11,2.95,0.4c0.1-0.59,0.2-1.09,0.1-1.69
				c-0.12-0.65-0.83-1.08-1.45-1.1c-0.42-0.01-0.8,0.12-1.19,0.24c0.49,0.84,0.97,1.67,1.46,2.51c0.07-0.06,0.14-0.11,0.21-0.17
				C14.95,16.97,12.82,14.86,11.32,16.05L11.32,16.05z"/>
		</g>
	</g>
	<g>
		<path class="st5" d="M12.21,12.99c-0.49,0.26-1.09,0.2-1.62,0.03c-0.53-0.17-1.02-0.43-1.56-0.57c0.97,0.58,1.41,1.72,2.09,2.61
			c0.17,0.22,0.35,0.43,0.46,0.68c0.27,0.59,0.11,1.3-0.24,1.85c-0.01-0.47-0.01-0.94-0.02-1.41c0-0.1-0.02-0.24-0.12-0.26
			c-0.09-0.02-0.17,0.06-0.23,0.14c-0.39,0.56-0.59,1.24-0.58,1.92"/>
		<g>
			<path class="st3" d="M11.81,11.54c-0.78,0.31-1.63-0.31-2.38-0.53c-1.7-0.5-2.52,1.82-1.16,2.74c0.55,0.37,0.85,1.03,1.2,1.57
				c0.34,0.52,0.92,0.91,0.58,1.53c0.93,0.25,1.86,0.5,2.8,0.76c-0.02-1.31-0.03-3.57-2.05-3.12c-1.43,0.32-1.86,2.28-1.91,3.51
				c-0.07,1.93,2.93,1.93,3,0c-0.02-0.21,0.01-0.41,0.09-0.61c0.23-0.4,0.1-0.4-0.38-0.01c-0.49-0.13-0.97-0.26-1.46-0.39
				c-0.28-0.57-0.38-0.6-0.3-0.09c0,0.24,0.01,0.47,0.01,0.71c0.02,1.44,2.07,2.1,2.8,0.76c0.76-1.42,0.71-2.75-0.23-4.05
				c-0.83-1.15-1.42-2.33-2.63-3.15c-0.39,0.91-0.77,1.83-1.16,2.74c1.34,0.4,2.55,1.09,3.98,0.53
				C14.38,13.73,13.61,10.83,11.81,11.54L11.81,11.54z"/>
		</g>
	</g>
	<g>
		<path class="st5" d="M12,18.6c-0.04,0.15-0.16,0.27-0.29,0.35c-0.14,0.07-0.29,0.11-0.45,0.14c-0.09,0.02-0.19,0.04-0.28,0.04
			c-0.2,0-0.42-0.09-0.59,0.02"/>
		<g>
			<path class="st3" d="M10.55,18.2c0.08-0.21,0.32-0.43,0.46-0.6c-0.05,0.01-0.1,0.02-0.15,0.03c0.15-0.01,0.16-0.02,0.04-0.02
				c-0.31-0.04-0.62-0.03-0.91,0.08c-0.75,0.29-1.28,1.01-1.05,1.85c0.2,0.72,1.09,1.34,1.85,1.05c-0.12,0.05-0.13,0,0.03,0.02
				c0.1,0.01,0.19,0.01,0.29,0c0.35-0.03,0.69-0.1,1.02-0.23c0.66-0.26,1.05-0.72,1.3-1.38c0.28-0.73-0.31-1.68-1.05-1.85
				C11.54,16.96,10.85,17.42,10.55,18.2L10.55,18.2z"/>
		</g>
	</g>
	<g>
		<path class="st5" d="M9.83,11.27c-0.56,0.02-1.12,0.06-1.68,0.12c0.06,0.08,0.12,0.16,0.17,0.24"/>
		<g>
			<path class="st3" d="M9.83,9.77C9.27,9.79,8.71,9.83,8.14,9.89c-0.54,0.06-1.01,0.25-1.3,0.74c-0.25,0.43-0.31,1.09,0,1.51
				c0.06,0.08,0.12,0.16,0.17,0.24c0.48,0.65,1.3,0.98,2.05,0.54c0.64-0.38,1.02-1.4,0.54-2.05c-0.06-0.08-0.12-0.16-0.17-0.24
				c-0.43,0.75-0.86,1.5-1.3,2.26c0.56-0.06,1.12-0.1,1.68-0.12c0.78-0.03,1.54-0.67,1.5-1.5C11.29,10.49,10.67,9.73,9.83,9.77
				L9.83,9.77z"/>
		</g>
	</g>
	<g>
		<path class="st5" d="M12.96,7.91c0.41-0.88,0.7-1.81,0.87-2.76c0.03,1.39-0.01,2.78-0.05,4.17"/>
		<g>
			<path class="st3" d="M13.6,8.29c0.43-0.95,0.75-1.91,0.95-2.94c-0.49-0.07-0.98-0.13-1.47-0.2c0.02,1.39-0.01,2.78-0.05,4.17
				c-0.03,0.97,1.47,0.96,1.5,0c0.04-1.39,0.07-2.78,0.05-4.17c-0.01-0.81-1.31-1.06-1.47-0.2c-0.17,0.89-0.42,1.75-0.8,2.58
				C11.91,8.4,13.21,9.17,13.6,8.29L13.6,8.29z"/>
		</g>
	</g>
	<g>
		<path class="st5" d="M10.06,20.36c-0.17-0.04-0.35,0.07-0.48,0.19c-0.13,0.12-0.25,0.26-0.41,0.34c-0.01-0.04,0-0.08,0.03-0.11"/>
		<g>
			<path class="st3" d="M10.06,19.61c-0.59-0.02-0.81,0.36-1.26,0.63c0.37,0.28,0.73,0.56,1.1,0.85c0.01-0.04,0.02-0.07,0.03-0.11
				c0.22-0.94-1.22-1.34-1.45-0.4c-0.01,0.04-0.02,0.07-0.03,0.11c-0.15,0.62,0.52,1.19,1.1,0.85c0.13-0.08,0.25-0.17,0.37-0.27
				c0.03-0.03,0.06-0.06,0.1-0.09c0.12-0.1,0.13-0.12,0.04-0.06C11.03,21.13,11.03,19.63,10.06,19.61L10.06,19.61z"/>
		</g>
	</g>
	<g>
		<g>
			<path class="st3" d="M6.8,12.67c1.93,0,1.93-3,0-3C4.87,9.67,4.87,12.67,6.8,12.67L6.8,12.67z"/>
		</g>
	</g>
	<path class="st6" d="M38.5,9.5c0,6,0,6,0,6s0-3,0,0s0,3,0,3v-15"/>
	<g>
		<path class="st5" d="M34.65,14.37c-0.57-0.94-1.56-1.56-2.17-2.47c-0.05-0.07-0.09-0.15-0.07-0.23c0.03-0.09,0.12-0.13,0.2-0.16
			c0.94-0.36,1.95-0.43,2.95-0.49"/>
		<g>
			<path class="st3" d="M35.94,13.61c-0.35-0.54-0.77-1.02-1.23-1.47c-0.35-0.34-0.77-0.68-1-1.11c0.07,0.25,0.14,0.5,0.2,0.76
				c0-0.04-0.01-0.08-0.01-0.12c-0.15,0.35-0.29,0.71-0.44,1.06c-0.29,0.14-0.33,0.18-0.13,0.11c0.11-0.04,0.22-0.07,0.33-0.09
				c0.22-0.06,0.45-0.1,0.68-0.13c0.4-0.05,0.81-0.07,1.22-0.09c0.81-0.05,1.5-0.65,1.5-1.5c0-0.77-0.69-1.55-1.5-1.5
				c-1.41,0.09-4.37,0.08-4.63,1.95c-0.22,1.6,1.66,2.5,2.42,3.66C34.4,16.74,37,15.24,35.94,13.61L35.94,13.61z"/>
		</g>
	</g>
	<g>
		<g>
			<path class="st3" d="M31.29,12.81c1.93,0,1.93-3,0-3C29.36,9.81,29.36,12.81,31.29,12.81L31.29,12.81z"/>
		</g>
	</g>
	<g>
		<path class="st5" d="M35.87,12.83c0.26,0.56,0.52,1.13,0.78,1.69c0.11-0.55,0.14-1.11,0.09-1.66c-0.25,1.29-0.11,2.62-0.13,3.94
			c-0.01,0.27-0.02,0.55-0.13,0.8c-0.45-0.69-0.89-1.37-1.34-2.06c-0.32,0.25-0.52,0.63-0.63,1.02c-0.11,0.39-0.14,0.8-0.19,1.2
			c-0.08,0.59-0.2,1.17-0.33,1.75c0.42-0.17,0.83-0.34,1.25-0.52c0.62-0.26,1.25-0.52,1.73-0.99c-0.73,0.28-1.47,0.57-2.2,0.87
			c0.29-0.52,0.56-1.04,0.77-1.6c0.26-0.71,0.42-1.45,0.54-2.2c0.11-0.69,0.2-1.39,0.27-2.08c0.05-0.55,0.09-1.13,0.39-1.59
			c0.01,0.16,0.01,0.32,0.02,0.49c-0.02-0.92-0.01-1.83,0.04-2.75"/>
		<g>
			<path class="st3" d="M34.58,13.59c0.26,0.56,0.52,1.13,0.78,1.69c0.51,1.12,2.55,0.89,2.74-0.36c0.11-0.7,0.17-1.35,0.15-2.06
				c-0.06-1.6-2.71-2.15-2.95-0.4c-0.21,1.51,0.11,3.29-0.26,4.73c0.91-0.12,1.83-0.24,2.74-0.36c-0.45-0.69-0.89-1.37-1.34-2.06
				c-0.49-0.76-1.69-1.07-2.36-0.3c-1.17,1.35-1.17,2.95-1.53,4.64c-0.21,0.99,0.7,2.32,1.85,1.85c1.31-0.54,2.51-1.02,3.64-1.9
				c1.16-0.91-0.1-3.04-1.46-2.51c-0.73,0.29-1.47,0.58-2.2,0.87c0.56,0.73,1.13,1.47,1.69,2.2c0.59-1.09,1.06-2.19,1.33-3.41
				c0.27-1.24,0.13-2.91,0.65-4.06c-0.93-0.25-1.86-0.5-2.8-0.76c0.01,0.16,0.01,0.32,0.02,0.49c0.07,1.92,3.02,1.94,3,0
				c-0.01-0.92,0-1.83,0.04-2.75c0.08-1.93-2.92-1.93-3,0c-0.04,0.92-0.05,1.83-0.04,2.75c1,0,2,0,3,0
				c-0.01-0.16-0.01-0.32-0.02-0.49c-0.05-1.36-2.15-2.2-2.8-0.76c-1.08,2.39-0.67,5.08-1.98,7.47c-0.56,1.03,0.4,2.73,1.69,2.2
				c0.73-0.3,1.46-0.59,2.2-0.87c-0.49-0.84-0.97-1.67-1.46-2.51c-0.67,0.52-1.54,0.8-2.32,1.12c0.62,0.62,1.23,1.23,1.85,1.85
				c0.19-0.9,0.17-2.63,0.76-3.31c-0.79-0.1-1.57-0.2-2.36-0.3c0.45,0.69,0.89,1.37,1.34,2.06c0.68,1.05,2.41,0.94,2.74-0.36
				c0.4-1.54,0.04-3.16,0.26-4.73c-0.98-0.13-1.96-0.27-2.95-0.4c0.04,0.42,0.03,0.84-0.04,1.26c0.91-0.12,1.83-0.24,2.74-0.36
				c-0.26-0.56-0.52-1.13-0.78-1.69C36.36,10.32,33.77,11.84,34.58,13.59L34.58,13.59z"/>
		</g>
	</g>
	<g>
		<path class="st5" d="M37.37,8.07c-0.09-1.05,0.4-2.07,0.38-3.12"/>
		<g>
			<path class="st3" d="M38.12,8.07C38.06,7.01,38.48,6,38.5,4.94c0.02-0.97-1.48-0.97-1.5,0C36.98,6,36.56,7,36.62,8.07
				C36.67,9.03,38.17,9.03,38.12,8.07L38.12,8.07z"/>
		</g>
	</g>
	<g>
		<path class="st5" d="M37.05,7.58"/>
		<g>
			<path class="st3" d="M37.05,8.33c0.97,0,0.97-1.5,0-1.5C36.08,6.83,36.08,8.33,37.05,8.33L37.05,8.33z"/>
		</g>
	</g>
	<g>
		<g>
			<path class="st3" d="M29.83,11.52c0.97,0,0.97-1.5,0-1.5C28.87,10.02,28.87,11.52,29.83,11.52L29.83,11.52z"/>
		</g>
	</g>
	<g>
		<path class="st5" d="M33.58,20.39c-0.11,0.21-0.24,0.41-0.37,0.6"/>
		<g>
			<path class="st3" d="M32.93,20.01c-0.12,0.2-0.24,0.4-0.37,0.6c-0.53,0.81,0.76,1.56,1.3,0.76c0.13-0.2,0.25-0.39,0.37-0.6
				C34.7,19.93,33.4,19.17,32.93,20.01L32.93,20.01z"/>
		</g>
	</g>
	<path class="st7" d="M62.5,12.5c0-6,0-6,0-6v-3l-3,6l-7,1l5,5l-1,6l6-3V12.5z"/>
	<path class="st7" d="M86.5,12.5c0-6,0-6,0-6v-3l-3,6l-7,1l5,5l-1,6l6-3V12.5z"/>
</g>
</svg>
